<svg xmlns="http://www.w3.org/2000/svg" viewBox="0 0 288 192.528"><defs><style>.a{fill:#179c62;}.b{fill:#fff;}.c{fill:#ff873e;}.d{fill:#010101;}</style></defs><path d="M67.183,189.734s-.917,2.586-2.335,2.753a5.071,5.071,0,0,1-3.753-1L43.579,181.227a5.539,5.539,0,0,1-1.167-1.5,2.369,2.369,0,0,1-3.336-.834c-1.5-2.085-16.348-9.884-16.348-9.884a4.093,4.093,0,0,1-2.148-1.521s-1.689.437-2.377-.731L2.752,141.943.458,135.4a3.994,3.994,0,0,1,1.376-2S.5,131.975.708,126.971.667,111.208.667,111.208.542,109.581,3,108.33s-1.71-18.766-1.71-18.766.5-1.084.417-.876A13.064,13.064,0,0,1,.667,86.394s.5-1.793,3.294-3.419,18.475-9.3,18.475-9.3a4.562,4.562,0,0,1,2.877-2.961C27.857,69.588,43.7,61.79,43.7,61.79a5.987,5.987,0,0,1,2.878-3.462c2.293-1.209,22.227-1.46,22.227-1.46L82.2,58.37a17.387,17.387,0,0,1,2.44,3.065l18.579,9.445a6.37,6.37,0,0,1,2.5,2.941l18.391,9.133a5.509,5.509,0,0,1,2.69,5.692L114.058,153.7Z"/><path class="a" d="M20.184,147.906,20.1,165.464s-.167,1.709-2.211.959l-15.8-9.217a4.748,4.748,0,0,1-1.293-3V136.271s.334-2.044,2.085-1l14.65,8.5a6.3,6.3,0,0,1,2.236,2.126,4.67,4.67,0,0,1,.421,2.01"/><path d="M1.976,134.974a1.779,1.779,0,0,1,.9.3l14.65,8.5a6.278,6.278,0,0,1,2.236,2.126,4.664,4.664,0,0,1,.421,2.01L20.1,165.463a1.273,1.273,0,0,1-1.28,1.15,2.733,2.733,0,0,1-.931-.191l-15.8-9.217a4.748,4.748,0,0,1-1.293-3V136.271s.212-1.3,1.184-1.3m0-.667h0c-1.217,0-1.737,1.214-1.842,1.856l-.009.053V154.2a5.407,5.407,0,0,0,1.489,3.474l.061.061.074.044L17.555,167l.05.031.056.019a3.369,3.369,0,0,0,1.16.232,1.925,1.925,0,0,0,1.943-1.751l0-.032v-.03l.084-17.557a5.276,5.276,0,0,0-.519-2.36,6.963,6.963,0,0,0-2.47-2.355l-14.65-8.5a2.44,2.44,0,0,0-1.236-.387"/><path class="a" d="M20.391,123.509l-.083,17.558s-.167,1.71-2.206.959L2.331,132.809a4.75,4.75,0,0,1-1.289-3V111.874s.332-2.043,2.08-1l14.618,8.5a6.271,6.271,0,0,1,2.231,2.126,4.676,4.676,0,0,1,.42,2.009"/><path d="M2.223,110.577a1.782,1.782,0,0,1,.9.3l14.618,8.5a6.254,6.254,0,0,1,2.231,2.126,4.67,4.67,0,0,1,.42,2.009l-.084,17.557a1.269,1.269,0,0,1-1.276,1.15,2.723,2.723,0,0,1-.929-.191L2.331,132.808a4.75,4.75,0,0,1-1.289-3V111.874s.211-1.3,1.181-1.3m0-.667h0c-1.215,0-1.734,1.215-1.839,1.856l-.009.054v17.986A5.415,5.415,0,0,0,1.86,133.28l.061.061.074.044L17.766,142.6l.051.031.055.019a3.367,3.367,0,0,0,1.159.233,1.924,1.924,0,0,0,1.94-1.752l0-.031v-.031l.083-17.556a5.268,5.268,0,0,0-.517-2.36,6.947,6.947,0,0,0-2.465-2.355L3.457,110.3a2.437,2.437,0,0,0-1.234-.387"/><path class="a" d="M20.016,99.364l-.083,17.557s-.167,1.71-2.206.959l-15.77-9.216a4.753,4.753,0,0,1-1.29-3V87.729s.333-2.044,2.08-1l14.619,8.5a6.277,6.277,0,0,1,2.23,2.126,4.68,4.68,0,0,1,.42,2.01"/><path d="M1.848,86.431a1.78,1.78,0,0,1,.9.3l14.619,8.5a6.286,6.286,0,0,1,2.23,2.126,4.68,4.68,0,0,1,.42,2.01l-.083,17.557a1.271,1.271,0,0,1-1.277,1.15,2.727,2.727,0,0,1-.929-.191l-15.77-9.216a4.753,4.753,0,0,1-1.29-3V87.728s.211-1.3,1.181-1.3m0-.667h0C.633,85.764.114,86.979.009,87.62L0,87.674V105.66a5.415,5.415,0,0,0,1.485,3.474l.061.061.074.043,15.771,9.217.051.029.055.021a3.408,3.408,0,0,0,1.159.231,1.924,1.924,0,0,0,1.94-1.751l0-.031v-.031l.083-17.557a5.261,5.261,0,0,0-.517-2.358A6.949,6.949,0,0,0,17.7,94.651l-14.619-8.5a2.437,2.437,0,0,0-1.234-.387"/><path class="b" d="M41.2,159.916l-.083,17.557s-.167,1.71-2.21.959L23.1,169.216a4.749,4.749,0,0,1-1.293-3V148.281s.334-2.044,2.085-1l14.651,8.5a6.284,6.284,0,0,1,2.235,2.126,4.667,4.667,0,0,1,.421,2.01"/><path d="M22.994,146.984a1.791,1.791,0,0,1,.9.3l14.651,8.5a6.267,6.267,0,0,1,2.235,2.126,4.661,4.661,0,0,1,.421,2.01l-.083,17.556a1.273,1.273,0,0,1-1.279,1.151,2.7,2.7,0,0,1-.931-.192L23.1,169.216a4.748,4.748,0,0,1-1.293-3V148.282s.212-1.3,1.184-1.3m0-.666h0c-1.217,0-1.737,1.214-1.841,1.855l-.009.054v17.987a5.412,5.412,0,0,0,1.488,3.474l.061.061.074.043,15.806,9.216.05.03.056.02a3.393,3.393,0,0,0,1.161.232,1.925,1.925,0,0,0,1.942-1.751l0-.032v-.031l.084-17.556a5.274,5.274,0,0,0-.519-2.36,6.955,6.955,0,0,0-2.47-2.355l-14.65-8.5a2.442,2.442,0,0,0-1.236-.386"/><path class="b" d="M41.409,135.52l-.082,17.558s-.168,1.709-2.207.959L23.35,144.82a4.753,4.753,0,0,1-1.29-3V123.885s.334-2.044,2.08-1l14.62,8.5a6.283,6.283,0,0,1,2.229,2.126,4.668,4.668,0,0,1,.42,2.01"/><path d="M23.242,122.587a1.788,1.788,0,0,1,.9.3l14.618,8.5a6.271,6.271,0,0,1,2.231,2.126,4.661,4.661,0,0,1,.419,2.01l-.083,17.557a1.27,1.27,0,0,1-1.276,1.15,2.718,2.718,0,0,1-.929-.191L23.35,144.819a4.752,4.752,0,0,1-1.29-3V123.885s.212-1.3,1.182-1.3m0-.666h0c-1.216,0-1.735,1.215-1.839,1.856l-.009.054v17.986a5.412,5.412,0,0,0,1.485,3.473l.061.062.074.043,15.77,9.216.051.03.055.02a3.369,3.369,0,0,0,1.16.232,1.924,1.924,0,0,0,1.94-1.751l0-.032v-.03l.083-17.557a5.278,5.278,0,0,0-.517-2.359,6.958,6.958,0,0,0-2.465-2.356l-14.618-8.5a2.43,2.43,0,0,0-1.234-.387"/><path class="b" d="M41.034,111.374l-.083,17.557s-.167,1.71-2.206.959l-15.77-9.216a4.753,4.753,0,0,1-1.29-3V99.738s.333-2.043,2.08-1l14.619,8.5a6.269,6.269,0,0,1,2.23,2.126,4.662,4.662,0,0,1,.42,2.01"/><path d="M22.867,98.442a1.782,1.782,0,0,1,.9.3l14.618,8.5a6.263,6.263,0,0,1,2.231,2.126,4.641,4.641,0,0,1,.419,2.01l-.083,17.556a1.27,1.27,0,0,1-1.275,1.15,2.7,2.7,0,0,1-.93-.191l-15.771-9.216a4.755,4.755,0,0,1-1.289-3V99.739s.211-1.3,1.182-1.3m0-.667h0c-1.216,0-1.735,1.215-1.839,1.856l-.009.054v17.986a5.422,5.422,0,0,0,1.484,3.474l.061.061.075.044,15.77,9.215.052.031.054.02a3.384,3.384,0,0,0,1.16.232A1.924,1.924,0,0,0,41.614,129l0-.031v-.031l.083-17.556a5.268,5.268,0,0,0-.516-2.36,6.975,6.975,0,0,0-2.466-2.355L24.1,98.162a2.44,2.44,0,0,0-1.233-.387"/><path class="c" d="M62.554,172.093l-.083,17.558s-.167,1.71-2.21.959l-15.806-9.217a4.745,4.745,0,0,1-1.293-3V160.458s.334-2.043,2.085-1l14.651,8.5a6.275,6.275,0,0,1,2.235,2.126,4.662,4.662,0,0,1,.421,2.009"/><path d="M44.346,159.161a1.788,1.788,0,0,1,.9.3l14.651,8.5a6.269,6.269,0,0,1,2.235,2.127,4.656,4.656,0,0,1,.421,2.009l-.083,17.557a1.273,1.273,0,0,1-1.28,1.15,2.723,2.723,0,0,1-.93-.191l-15.806-9.217a4.745,4.745,0,0,1-1.293-3V160.458s.212-1.3,1.184-1.3m0-.667h0c-1.217,0-1.737,1.215-1.842,1.856l-.009.054V178.39a5.407,5.407,0,0,0,1.489,3.474l.061.062.074.043,15.806,9.216.05.03.056.02a3.392,3.392,0,0,0,1.16.232,1.926,1.926,0,0,0,1.943-1.752l0-.031v-.031l.084-17.556a5.28,5.28,0,0,0-.519-2.361,6.963,6.963,0,0,0-2.47-2.355l-14.65-8.5a2.447,2.447,0,0,0-1.236-.387"/><path class="c" d="M62.761,147.7l-.083,17.557s-.167,1.71-2.206.959L44.7,157a4.753,4.753,0,0,1-1.29-3V136.062s.333-2.043,2.08-1l14.618,8.5a6.272,6.272,0,0,1,2.231,2.126,4.677,4.677,0,0,1,.42,2.01"/><path d="M44.594,134.765a1.78,1.78,0,0,1,.9.3l14.618,8.5a6.255,6.255,0,0,1,2.231,2.126,4.671,4.671,0,0,1,.42,2.01l-.084,17.556A1.269,1.269,0,0,1,61.4,166.4a2.7,2.7,0,0,1-.929-.191L44.7,157a4.752,4.752,0,0,1-1.29-3V136.062s.211-1.3,1.181-1.3m0-.666h0c-1.215,0-1.734,1.214-1.839,1.856l-.009.053V154a5.412,5.412,0,0,0,1.485,3.473l.061.061.074.044,15.771,9.215.051.031.055.02a3.387,3.387,0,0,0,1.159.232,1.924,1.924,0,0,0,1.94-1.752l0-.031v-.031l.083-17.556a5.271,5.271,0,0,0-.517-2.36,6.961,6.961,0,0,0-2.464-2.355l-14.619-8.5a2.435,2.435,0,0,0-1.234-.386"/><path class="c" d="M62.386,123.551,62.3,141.109s-.167,1.709-2.206.959l-15.77-9.217a4.753,4.753,0,0,1-1.29-3V111.916s.333-2.044,2.08-1l14.619,8.5a6.277,6.277,0,0,1,2.23,2.126,4.683,4.683,0,0,1,.42,2.01"/><path d="M44.219,110.618a1.785,1.785,0,0,1,.9.3l14.618,8.5a6.271,6.271,0,0,1,2.231,2.126,4.661,4.661,0,0,1,.419,2.01L62.3,141.108a1.27,1.27,0,0,1-1.276,1.15,2.718,2.718,0,0,1-.929-.191L44.327,132.85a4.752,4.752,0,0,1-1.29-3V111.916s.212-1.3,1.182-1.3m0-.666h0c-1.215,0-1.735,1.215-1.839,1.856l-.009.054v17.986a5.412,5.412,0,0,0,1.485,3.473l.061.062.074.043,15.77,9.216.051.03.056.02a3.359,3.359,0,0,0,1.159.232,1.924,1.924,0,0,0,1.94-1.751l0-.032v-.03l.083-17.557a5.278,5.278,0,0,0-.517-2.359,6.958,6.958,0,0,0-2.465-2.356l-14.618-8.5a2.43,2.43,0,0,0-1.234-.387"/><path class="a" d="M19.954,94.369l-15.7-9.6s-1.314-1.126.876-2.377l14.638-8.382a4.67,4.67,0,0,1,3.878.062L39.1,83.015s1.751.876,0,2.252L23.332,94.275s-1.189,1-3.378.094"/><path d="M21.7,73.61a4.2,4.2,0,0,1,1.942.461L39.1,83.016s1.751.876,0,2.252L23.332,94.276a2.644,2.644,0,0,1-1.628.474,4.562,4.562,0,0,1-1.75-.38l-15.7-9.6s-1.314-1.126.876-2.377l14.637-8.383a4.889,4.889,0,0,1,1.937-.4m0-.667h0a5.567,5.567,0,0,0-2.227.465l-.021.011-.02.011L4.8,81.812A2.707,2.707,0,0,0,3.2,83.768a1.851,1.851,0,0,0,.616,1.506l.041.035.045.028,15.7,9.6.045.027.048.019a5.235,5.235,0,0,0,2,.432,3.373,3.373,0,0,0,2-.585l15.724-8.985.043-.025.039-.03a2.154,2.154,0,0,0,1.025-1.872,2.093,2.093,0,0,0-1.139-1.5L23.979,73.494a4.874,4.874,0,0,0-2.276-.551"/><path class="a" d="M40.973,82.192l-15.7-9.6s-1.314-1.126.875-2.377l14.638-8.382a4.671,4.671,0,0,1,3.878.062l15.452,8.945s1.751.876,0,2.252L44.351,82.1s-1.189,1-3.378.094"/><path d="M42.721,61.432a4.2,4.2,0,0,1,1.942.461l15.451,8.945s1.753.876,0,2.252L44.35,82.1a2.641,2.641,0,0,1-1.626.474,4.571,4.571,0,0,1-1.752-.38l-15.7-9.6s-1.314-1.126.877-2.377L40.784,61.83a4.9,4.9,0,0,1,1.937-.4m0-.667h0a5.567,5.567,0,0,0-2.227.465l-.02.011-.021.011L25.816,69.634a2.707,2.707,0,0,0-1.595,1.956,1.854,1.854,0,0,0,.616,1.506l.041.035.045.028,15.7,9.6.045.027.048.019a5.241,5.241,0,0,0,2.007.432,3.374,3.374,0,0,0,2-.585l15.724-8.985.042-.025.039-.03a2.152,2.152,0,0,0,1.025-1.873,2.09,2.09,0,0,0-1.139-1.5L45,61.316a4.871,4.871,0,0,0-2.276-.551"/><path class="a" d="M62.324,69.681l-15.7-9.6s-1.314-1.126.876-2.377L62.137,49.32a4.67,4.67,0,0,1,3.878.062l15.451,8.945s1.752.876,0,2.252L65.7,69.587s-1.188,1-3.378.094"/><path d="M64.073,48.921a4.2,4.2,0,0,1,1.942.461l15.451,8.946s1.752.875,0,2.252L65.7,69.587a2.641,2.641,0,0,1-1.628.475,4.566,4.566,0,0,1-1.75-.381l-15.7-9.6s-1.314-1.126.876-2.377L62.136,49.32a4.879,4.879,0,0,1,1.937-.4m0-.667h0a5.558,5.558,0,0,0-2.227.466l-.021.01-.02.011L47.168,57.124a2.706,2.706,0,0,0-1.595,1.956,1.848,1.848,0,0,0,.616,1.505l.041.035.045.028,15.7,9.6.045.027.048.02a5.256,5.256,0,0,0,2,.431,3.379,3.379,0,0,0,2-.584L81.8,61.158l.043-.024.038-.03A2.151,2.151,0,0,0,82.9,59.231a2.093,2.093,0,0,0-1.139-1.5L66.349,48.805a4.883,4.883,0,0,0-2.276-.551"/><path class="b" d="M41.035,106.547l-15.7-9.6s-1.314-1.126.875-2.376l14.638-8.383a4.673,4.673,0,0,1,3.878.063l15.452,8.945s1.751.875,0,2.252l-15.764,9.008s-1.189,1-3.378.094"/><path d="M42.784,85.787a4.2,4.2,0,0,1,1.942.461l15.451,8.945s1.752.876,0,2.253l-15.764,9.007a2.643,2.643,0,0,1-1.627.474,4.586,4.586,0,0,1-1.751-.38l-15.7-9.6s-1.314-1.126.876-2.377l14.637-8.383a4.9,4.9,0,0,1,1.937-.4m0-.667h0a5.567,5.567,0,0,0-2.227.465l-.021.011-.02.011L25.879,93.989a2.707,2.707,0,0,0-1.6,1.956,1.851,1.851,0,0,0,.616,1.506l.041.035.046.027,15.7,9.6.044.027.048.019a5.238,5.238,0,0,0,2.006.431,3.377,3.377,0,0,0,2-.584l15.724-8.985L60.55,98l.039-.03A2.15,2.15,0,0,0,61.614,96.1a2.093,2.093,0,0,0-1.139-1.5L45.06,85.671a4.871,4.871,0,0,0-2.276-.551"/><path class="b" d="M62.053,94.369l-15.7-9.6s-1.314-1.126.876-2.377l14.639-8.382a4.668,4.668,0,0,1,3.877.062l15.451,8.945s1.752.876,0,2.252L65.431,94.275s-1.189,1-3.378.094"/><path d="M63.8,73.61a4.2,4.2,0,0,1,1.942.461l15.451,8.945s1.752.876,0,2.252L65.431,94.276a2.644,2.644,0,0,1-1.628.474,4.566,4.566,0,0,1-1.75-.38l-15.7-9.6s-1.314-1.126.876-2.377l14.637-8.383a4.889,4.889,0,0,1,1.937-.4m0-.667h0a5.567,5.567,0,0,0-2.227.465l-.021.011-.02.011L46.9,81.812A2.707,2.707,0,0,0,45.3,83.768a1.851,1.851,0,0,0,.616,1.506l.041.035.046.028,15.7,9.6.045.027.047.019a5.235,5.235,0,0,0,2,.432,3.373,3.373,0,0,0,2-.585l15.725-8.985.042-.025.04-.03a2.155,2.155,0,0,0,1.024-1.872,2.093,2.093,0,0,0-1.139-1.5L66.078,73.494a4.874,4.874,0,0,0-2.276-.551"/><path class="b" d="M83.249,82.077l-15.7-9.6s-1.314-1.126.875-2.377l14.638-8.382a4.671,4.671,0,0,1,3.878.062l15.452,8.945s1.751.876,0,2.252L86.627,81.983s-1.189,1-3.378.094"/><path d="M85,61.318a4.2,4.2,0,0,1,1.942.461l15.451,8.945s1.752.876,0,2.252L86.627,81.984A2.643,2.643,0,0,1,85,82.458a4.567,4.567,0,0,1-1.751-.38l-15.7-9.6s-1.314-1.126.876-2.377l14.637-8.383a4.889,4.889,0,0,1,1.937-.4m0-.667h0a5.567,5.567,0,0,0-2.227.465l-.021.011-.02.011L68.093,69.52A2.707,2.707,0,0,0,66.5,71.476a1.849,1.849,0,0,0,.616,1.506l.041.035.045.028,15.7,9.6.045.027.048.019A5.24,5.24,0,0,0,85,83.125a3.375,3.375,0,0,0,2-.585l15.724-8.985.042-.024.039-.03a2.153,2.153,0,0,0,1.025-1.873,2.093,2.093,0,0,0-1.139-1.5L87.274,61.2A4.871,4.871,0,0,0,85,60.651"/><path class="c" d="M61.97,118.933l-15.7-9.6s-1.314-1.126.876-2.376l14.638-8.382a4.67,4.67,0,0,1,3.878.062l15.451,8.945s1.752.875,0,2.252l-15.764,9.008s-1.189,1-3.378.094"/><path d="M63.719,98.172a4.189,4.189,0,0,1,1.942.462l15.451,8.945s1.752.875,0,2.252l-15.764,9.008a2.644,2.644,0,0,1-1.628.474,4.581,4.581,0,0,1-1.75-.38l-15.7-9.6s-1.314-1.126.876-2.377l14.637-8.382a4.879,4.879,0,0,1,1.937-.4m0-.667h0a5.558,5.558,0,0,0-2.227.466l-.021.011-.02.01-14.637,8.383a2.707,2.707,0,0,0-1.595,1.956,1.848,1.848,0,0,0,.616,1.5l.041.035.045.028,15.7,9.6.045.027.048.02a5.254,5.254,0,0,0,2,.432,3.38,3.38,0,0,0,2-.585l15.725-8.986.042-.024.039-.03a2.152,2.152,0,0,0,1.025-1.873,2.093,2.093,0,0,0-1.139-1.5L66,98.057a4.875,4.875,0,0,0-2.276-.552"/><path class="c" d="M82.989,106.755l-15.7-9.6s-1.314-1.126.875-2.377L82.8,86.394a4.671,4.671,0,0,1,3.878.062L102.131,95.4s1.751.876,0,2.252l-15.764,9.008s-1.189,1-3.378.094"/><path d="M84.738,86a4.193,4.193,0,0,1,1.941.461L102.131,95.4s1.751.876,0,2.252l-15.764,9.008a2.641,2.641,0,0,1-1.628.475,4.566,4.566,0,0,1-1.75-.381l-15.7-9.6s-1.314-1.126.875-2.377L82.8,86.393a4.889,4.889,0,0,1,1.937-.4m0-.667h0a5.567,5.567,0,0,0-2.227.465l-.021.011-.02.011L67.832,94.2a2.7,2.7,0,0,0-1.594,1.955,1.849,1.849,0,0,0,.616,1.506l.04.034.046.029,15.7,9.6.045.027.048.021a5.252,5.252,0,0,0,2.005.431,3.389,3.389,0,0,0,2-.584l15.724-8.986.043-.024.038-.03a2.155,2.155,0,0,0,1.026-1.873,2.091,2.091,0,0,0-1.14-1.5L87.013,85.879a4.87,4.87,0,0,0-2.275-.551"/><path class="c" d="M104.184,94.464l-15.7-9.6s-1.314-1.126.876-2.376L104,74.1a4.672,4.672,0,0,1,3.878.063l15.451,8.945s1.752.876,0,2.252L107.562,94.37s-1.189,1-3.378.094"/><path d="M105.933,73.7a4.2,4.2,0,0,1,1.942.461l15.451,8.945s1.752.876,0,2.252l-15.764,9.008a2.644,2.644,0,0,1-1.628.474,4.562,4.562,0,0,1-1.75-.38l-15.7-9.6s-1.314-1.126.876-2.377L104,74.1a4.889,4.889,0,0,1,1.937-.4m0-.667h0a5.587,5.587,0,0,0-2.227.465l-.021.011-.02.011L89.028,81.906a2.7,2.7,0,0,0-1.595,1.955,1.849,1.849,0,0,0,.616,1.506l.041.035.045.028,15.7,9.6.045.027.048.02a5.252,5.252,0,0,0,2,.431,3.37,3.37,0,0,0,2-.585l15.725-8.985.042-.024.039-.03a2.153,2.153,0,0,0,1.025-1.873,2.093,2.093,0,0,0-1.139-1.5l-15.415-8.926a4.874,4.874,0,0,0-2.276-.551"/><path class="b" d="M64.847,190.068V124.594a5.24,5.24,0,0,1,2.587-4.754l57.132-32.862a1.538,1.538,0,0,1,2,1.585v66.224s.083,2-2.753,3.837L67.1,191.236s-2.669,1.251-2.252-1.168"/><path d="M125.044,86.926c.574,0,1.468.228,1.524,1.637v66.224s.084,2-2.752,3.837L67.1,191.236a3.67,3.67,0,0,1-1.314.323c-.6,0-1.143-.3-.938-1.491V124.594a5.24,5.24,0,0,1,2.586-4.753l57.132-32.863a2.128,2.128,0,0,1,.478-.052m0-.667h0a2.748,2.748,0,0,0-.646.074l-.086.023-.078.045L67.1,119.262a5.864,5.864,0,0,0-2.92,5.354v65.4a2.034,2.034,0,0,0,.328,1.682,1.587,1.587,0,0,0,1.277.53,4.286,4.286,0,0,0,1.6-.385l.025-.013.024-.014L124.148,159.2c3.15-2.037,3.09-4.345,3.086-4.443v-66.2a2.119,2.119,0,0,0-2.191-2.3"/><path class="d" d="M79.527,125.761l5.588-5.338s-1.918-5-6.922-3.086-9.008,7.59-10.259,12.261.333,9.425,4.67,8.258,6.339-1.752,6.339-.084-4.837,5.839-6.5,1.668l-6.006,5.172s.417,4.67,4.5,4.753,9.592-3.085,12.761-9.341,1.939-13.814-3.169-12.678c0,0-3.586,1-4.921,1.251s-1.751-.166-1.084-1.835,3.586-3.336,5-1"/><path class="d" d="M105.383,107.245c-1.334-3.92-6.756-1.251-6.756-1.251l-10.592,5.922-.084,28.358,6.84-3.753-.167-10.176,3.669-2c8.091-5.5,8.425-13.179,7.09-17.1m-8.257,11.427-2.419,1.168v-5.005l2.419-1.418s2.085-1,2.335,1a4.165,4.165,0,0,1-2.335,4.254"/><polygon class="d" points="114.814 113.861 122.606 109.289 122.481 102.784 114.756 107.135 114.725 103.409 124.358 97.904 124.233 91.274 108.594 100.407 108.344 128.556 124.233 119.423 124.233 112.542 114.85 118.047 114.814 113.861"/><polygon class="d" points="114.48 147.723 122.272 143.152 122.147 136.646 114.422 140.998 114.391 137.272 124.024 131.767 123.899 125.136 108.26 134.269 108.01 162.418 123.899 153.285 123.899 146.405 114.516 151.91 114.48 147.723"/><polygon class="d" points="135.498 101.683 143.29 97.112 143.165 90.606 135.44 94.958 135.409 91.231 145.042 85.727 144.917 79.096 129.278 88.229 129.028 116.378 144.917 107.245 144.917 100.365 135.534 105.87 135.498 101.683"/><path class="d" d="M166.019,73.382c-2.5-5.254-9.008-1.251-9.008-1.251l-8.257,5v27.9l9.383-5.13c10.635-7.631,10.384-21.268,7.882-26.523M157.512,93.4l-2.252,1.126V80.013l2-1.251s2.753-1.626,3.378,3.628-1.5,9.884-3.127,11.01"/><path class="d" d="M208.556,82.516c-2.5-5.254-9.008-1.251-9.008-1.251l-8.257,5v27.9l9.383-5.13c10.635-7.632,10.384-21.268,7.882-26.523m-8.507,20.017-2.252,1.126V89.147l2-1.251s2.753-1.627,3.378,3.628-1.5,9.883-3.127,11.009"/><path class="d" d="M182.783,68.8l6.089-4s-.167-7.507-4.337-7.507-8.925,3.253-12.345,10.593-2.335,20.351,3,21.1,13.679-6.756,13.679-17.348l-6.089,2.836s-.25,5.588-3.086,6.5-3.292-5.583-1.918-12.177c1.251-6.005,5.588-4.671,5,0"/><path class="d" d="M192.136,51.958l6.661-3.847.126,18.641s.25,3.378,3,1.376,2.252-3.878,2.252-3.878l.125-19.267,5.38-3.253V60.872a15.31,15.31,0,0,1-6.756,13.386c-7.632,5.38-11.135,3.128-10.759-3.378Z"/><path class="d" d="M231.827,47.527a3.312,3.312,0,0,0-3.67-2.752c2.836-3.42,3.837-7.59,2.5-10.843s-5.338-1.335-5.338-1.335l-11.26,6.673-.083,28.275,12.511-7.424c4.838-3.253,5.838-9.508,5.338-12.594m-11.678-5.712,2.923-1.746s1.583-.772,1.989.609-.73,3.248-1.461,3.775l-3.492,1.99Zm3.629,13.594-3.586,2.043.041-4.753,3-1.794s1.626-.792,2.043.626-.75,3.336-1.5,3.878"/><polygon class="d" points="235.663 55.45 242.002 51.446 242.168 23.255 235.329 27.092 235.663 55.45"/><polygon class="d" points="71.854 183.573 78.193 179.569 78.36 151.378 71.521 155.215 71.854 183.573"/><polygon class="d" points="252.177 45.608 246.756 48.944 246.756 20.67 252.928 16.917 259.684 27.342 259.434 13.08 264.855 9.994 265.022 38.269 259.434 41.355 252.011 29.01 252.177 45.608"/><polygon class="d" points="174.652 124.177 169.23 127.513 169.23 99.239 175.403 95.485 182.159 105.91 181.908 91.648 187.33 88.562 187.497 116.837 181.908 119.923 174.485 107.579 174.652 124.177"/><path class="d" d="M283.871,24.4l.813,2.5,3.253-1.939L288,9.014l-9.445,5.443-.314,6.255,3.378-2.064a5.507,5.507,0,0,1-2.877,5.317c-3.378,2-3.253-5.129-2.878-9.258s2-7.069,3.879-6.944,1.751,3.065,1.751,3.065l6.443-4.5S287.687.7,284.309.069,274.331,3.133,271.485,9.2c-2.814,6.005-4.128,14.575-1.5,20.268s11.073,2.064,13.887-5.067"/><path class="d" d="M103.881,165.129l-3.895-10.067c.189-.244.38-.487.555-.743,3.131-4.554,3.431-9.413,2.485-12.189-1.334-3.92-7.569-.856-7.569-.856L84.865,147.2v28.693L91.62,171.8l-.166-10.592,1.032-.446c.271-.117.534-.247.8-.375l3,8.87ZM91.537,155.12v-5l3.169-1.835a1.281,1.281,0,0,1,2,1.084c.334,2.669-2,4.087-2.752,4.587Z"/><polygon class="d" points="129.112 150.262 129.112 121.925 135.805 118.046 135.93 139.252 144.063 134.498 144.063 141.754 129.112 150.262"/><path class="d" d="M158.888,133.059l6.881-3.879-6.506-24.27-7.006,3.753-6.631,32.153,5.38-3.128,1.16-6.238,5.63-3.147Zm-5.372-8.859,1.493-8.03,1.487,6.474Z"/></svg>