<?xml version="1.0" encoding="UTF-8"?>
<svg id="a" data-name="Layer 1" xmlns="http://www.w3.org/2000/svg" viewBox="0 0 1090 742">
  <g id="b" data-name="[VEC][DARK] SI Outline">
    <path d="M364.797945,561.07901l-11.684875,6.572693v18.257568l8.763611-4.016663c2.921265-1.825745,11.319702-6.937866,10.224243-16.796936-.730286-7.30304-7.302979-4.016663-7.302979-4.016663Z" style="fill: #fff;"/>
    <path d="M834.017,205.056732l-10.954529,6.572693v17.527283l13.145447-7.30304c2.55603-2.190918,6.937805-9.128784,5.112061-14.606079-1.460571-5.112122-7.302979-2.190857-7.302979-2.190857Z" style="fill: #fff;"/>
    <path d="M593.017306,306.933868l-7.30304,4.746948v52.946899l8.398499-4.016663c5.842468-4.381836,13.875732-21.178711,11.319641-40.531738-2.190857-18.987915-12.4151-13.145447-12.4151-13.145447Z" style="fill: #fff;"/>
    <path d="M840.589693,168.176483c-1.460571-5.112122-7.302979-2.190918-7.302979-2.190918l-10.589417,6.207581-.365173,17.162109,12.780334-7.30304c2.921204-2.190918,6.937805-8.763611,5.477234-13.875732Z" style="fill: #fff;"/>
    <path d="M748.206515,340.162628l-7.30304,4.746948v52.946899l8.398499-4.016663c6.20752-4.016724,13.875732-21.178772,11.319641-40.531738-2.190918-18.987915-12.4151-13.145447-12.4151-13.145447Z" style="fill: #fff;"/>
    <polygon points="579.506746 473.077545 590.461275 467.600311 584.98398 443.865509 579.506746 473.077545" style="fill: #fff;"/>
    <path d="M373.561556,433.641327l-8.763611,5.112061v18.257568l8.763611-4.381836c2.921204-1.825745,9.85907-5.842407,8.398499-15.336304-.730347-7.30304-8.398499-3.651489-8.398499-3.651489Z" style="fill: #fff;"/>
    <path d="M476.963778,342.405182c-.600586-.34668-2.192871-1.042969-3.995605-.002441l-205.987305,118.313965c-5.399414,3.114258-8.755371,8.920898-8.758789,15.155273l-.117676,235.174805c-.000488,1.46582.727051,2.728516,1.99707,3.463867,1.27002.734375,2.728027.736328,3.999023.003906l205.70752-117.990234c5.523926-3.179688,8.961426-9.119141,8.96582-15.49707l.185059-235.160156c.001465-2.082031-1.394531-3.114746-1.995117-3.461914ZM304.548006,675.006073l-23.004517,14.606079-1.460571-103.337769,25.195374-14.240845-.730286,102.972534ZM277.891939,565.460724c-14.971191-.365173-16.431763-17.527283-16.431763-17.527283l21.909058-18.987793c6.20752,14.971191,23.734802,0,23.734802-6.207581s-7.30304-4.016602-23.004517.365173c-16.06665,4.016602-21.909058-13.145447-17.162109-30.307556,4.747009-17.162048,19.353027-37.975708,37.610596-44.913574,18.257568-6.937866,25.195435,11.319702,25.195435,11.319702l-20.448486,19.353027c-5.112122-8.398499-15.701477-2.55603-18.257507,4.746887-2.556091,5.842468-.730347,7.668213,4.016602,6.572754,4.747009-1.095459,17.892456-4.747009,17.892456-4.747009,18.622681-4.016663,23.369629,23.36969,11.684814,46.374207-11.684875,22.639343-31.768188,34.324219-46.73938,33.959045ZM370.640352,637.395538l-10.954529-32.498413c-1.095459.730286-1.825745,1.095398-2.921204,1.460571l-3.651489,1.460571.730286,38.706055-24.830261,14.971191v-104.79834l38.705994-21.543884s23.004456-10.954529,27.751465,3.286316c3.286377,10.224243,2.190918,27.751465-9.128784,44.548462-.730286.730286-1.460632,1.825745-2.190918,2.55603l14.240906,36.880249-27.751465,14.971191ZM377.943392,473.077545l-13.51062,7.30304.730347,37.245361-24.830322,13.875793v-103.337769l38.705994-21.909058s20.083313-9.493896,24.830322,4.746948c4.746948,14.240967,3.651489,42.357544-25.92572,62.075684ZM464.849337,518.356293l.730286,23.734863-28.481812,16.796875v15.336365l34.324219-20.083313v24.830261l-58.059021,33.593872,1.095459-102.972534,56.963562-33.228699.365173,24.099915-35.054504,20.083313v13.510559l28.116638-15.701477ZM438.19327,410.636749l28.116638-16.06665.365173,23.734802-28.481812,16.796997v15.336304l34.324219-20.083313v25.195435l-58.059021,33.22876,1.095459-102.607483,56.963562-33.593872.730286,24.465088-35.419678,20.083313.365173,13.51062Z" style="fill: #fff;"/>
    <path d="M1081.989901,42.175018c-.02002-.679993-.300049-6.820007-2.429932-13.5-4.719971-14.789978-14.23999-18.809998-19.48999-19.890015-.100098-.02002-.200073-.039978-.300049-.059998-1.48999-.26001-3.050049-.390015-4.670044-.390015-8.269897,0-18.019897,3.369995-27.48999,9.619995-11.529907,7.610046-20.930054,18.330017-26.459961,30.180054-1.400024,3-2.690063,6.119995-3.859985,9.319946v-1.779968c-.02002-3.910034-2.100098-7.51001-5.469971-9.470032-1.710083-1-3.620117-1.5-5.530029-1.5-1.860107,0-3.72998.480042-5.410034,1.420044l-20.079956,11.320007c-3.530029,1.98999-5.680054,5.759949-5.600098,9.819946l.290039,13.830017-3.820068-5.839966c-2.099854-3.220032-5.619873-4.990051-9.209961-4.990051-1.949951,0-3.919922.52002-5.699951,1.600037l-22.27002,13.51001c-3.289978,2-5.299988,5.559998-5.299988,9.409973v.160034c-.059998-.040039-.109985-.090027-.159973-.120056-1.730042-1.029968-3.680054-1.549988-5.630005-1.549988-1.830017,0-3.650024.460022-5.309998,1.369995l-25.200012,13.869995c-3.559998,1.960022-5.75,5.730042-5.690002,9.790039l.209961,14.48999c-2.23999-2.640015-5.019958-4.659973-8.299988-5.909973-2.809998-1.080017-5.649963-1.480042-8.320007-1.480042-6.839966,0-12.599976,2.650024-14.019958,3.359985-.23999.110046-.470032.240051-.690002.370056l-41.27002,24.469971c-2.909973,1.72998-4.840027,4.679993-5.289978,7.98999-1.530029-.73999-3.190002-1.119995-4.840027-1.119995-1.969971,0-3.940002.530029-5.690002,1.599976l-19.719971,12.050049c-3.25,1.98999-5.25,5.519958-5.27002,9.329956l-.02002,5.5c-.909973-1.319946-2.119995-2.449951-3.549988-3.279968-1.710022-.97998-3.609985-1.47998-5.51001-1.47998-1.869995,0-3.75.47998-5.429993,1.429993l-24.459961,13.880005c-3.450012,1.949951-5.570007,5.609985-5.570007,9.569946v15.700012c-5.950012-6.399963-12.869995-7.349976-16.390015-7.349976-10.190002,0-35.940002,4.390015-54.890015,45.059998-2.26001,4.849976-4.039978,10.27002-5.359985,15.969971-3.609985-5.47998-8.619995-9.279968-14.679993-11.089966-2.799988-.830017-5.630005-1.169983-8.380005-1.169983-11.460022,0-21.609985,5.909973-23.179993,6.869995l-30.280029,18.23999c-2.369995,1.429993-4.070007,3.690002-4.839966,6.269958-1.100037-.349976-2.25-.529968-3.390015-.529968-1.919983,0-3.840027.5-5.549988,1.51001l-50.679993,29.890015c-3.280029-8.890015-9.809998-14.309998-14.100037-16.410034l-7.459961-3.690002-51.380005-29.690002c-2.730042-1.830017-5.869995-2.719971-8.51001-3.149963-2.420044-2.780029-4.920044-4.720032-6.609985-5.869995-1.560059-1.700012-3.120056-2.77002-4-3.340027-.320007-.23999-.650024-.450012-1-.650024l-56.170044-32.469971c-2.809998-1.660034-6.380005-2.77002-10.130005-3.169983-1.809998-2.190002-3.459961-3.940002-4.289978-4.800049-1.780029-2.199951-3.720032-3.539978-4.72998-4.190002-.320007-.23999-.650024-.449951-.990051-.649963l-56.23999-32.5c-.190002-.109985-.380005-.220032-.579956-.309998-3.960022-1.98999-8.200012-2.98999-12.590027-2.98999-3.650024,0-6.710022.639954-8.640015,1.179993-2.219971.630005-3.969971,1.450012-5.359985,2.390015l-52.830017,30.389954c-.059998.040039-.119995.070007-.169983.100037-1.97998,1.190002-7.309998,4.389954-9.859985,10.639954-.290039.309998-.570007.620056-.840027.940002h-.440002c-3.649963,0-6.709961.650024-8.639954,1.190002-2.220032.619995-3.980042,1.450012-5.360046,2.380005l-52.829956,30.400024c-.059998.029968-.120056.059998-.180054.099976-1.759949,1.049988-6.429993,3.860046-9.159973,9.150024-.48999.440002-.950012.880005-1.400024,1.339966-3.259949.100037-5.97998.680054-7.75,1.180054-2.219971.619995-3.97998,1.440002-5.359985,2.379944l-52.830017,30.390015c-.059998.040039-.119995.070007-.179993.109985-3.949951,2.370056-6.829956,5.100037-8.690002,8.27002-3.880005,3.049988-6.459961,6.109985-8.149963,8.660034-4.790039,4.259949-6,10.179993-6.280029,12.119995-.070007.519958-.109985,1.039978-.109985,1.559998v66.089966c0,5.670044,1.77002,10.410034,3.76001,13.950012-1.090027,2.099976-1.850037,4.419983-2.190002,6.77002-.070007.51001-.109985,1.029968-.109985,1.549988v66.099976c0,4.869995,1.309998,9.059998,2.949951,12.390015-.009949.02002-.019958.030029-.029968.049988-2.440002,3.470032-3.26001,7.070007-3.539978,9.01001-.070007.51001-.110046,1.030029-.110046,1.549988v66.090027c0,11.01001,6.660034,18.52002,8.700012,20.559998l.359985.369995c1.160034,1.159973,2.559998,2.030029,4.070007,2.570007l56.23999,32.75c.970032.559998,2.02002.969971,3.100037,1.219971,1.409973.480042,2.76001.740051,3.97998.869995,1.630005.570007,3.22998.880005,4.720032,1.02002.159973.130005.319946.26001.47998.390015,1.549988,2.339966,3.039978,3.940002,3.72998,4.630005l.369995.369995c1.160034,1.150024,2.550049,2.029968,4.059998,2.570007l56.240051,32.75c.879944.51001,1.829956.899963,2.809998,1.149963,3.579956,2.75,7.589966,3.960022,11.459961,3.990051,1.210022,1.659973,2.290039,2.799988,2.840027,3.349976l.359985.369995c1.159973,1.159973,2.549988,2.030029,4.070007,2.570007l56.23999,32.75c1.220032.710022,2.559998,1.179993,3.950012,1.380005.289978.089966.580017.169983.880005.23999,5.25,3.219971,10.529968,4.809998,15.98999,4.809998,1.369995,0,2.75-.099976,4.150024-.299988,1.349976-.190002,2.659973-.559998,3.929993-1.090027,3.159973-.309998,6.679993-1.26001,9.369995-2.950012l206.809998-118.909973c.159973-.090027.320007-.190002.47998-.289978,15.559998-10.050049,16.349976-22.850037,16.349976-25.309998v-6.580017c.470032-.190002.920044-.400024,1.360046-.650024l54.779968-31.039978c.98999-.559998,1.869995-1.280029,2.619995-2.099976,1.130005-.230042,2.23999-.620056,3.27002-1.210022l19.719971-11.320007c2.77002-1.590027,4.720032-4.309998,5.320007-7.450012l3.410034-17.599976,3.01001-1.669983.519958,2.349976c.73999,3.419983,3.059998,6.279968,6.25,7.700012,1.440002.640015,2.970032.959961,4.5.959961,1.869995,0,3.730042-.469971,5.410034-1.419983l25.190002-14.23999c1.98999-1.119995,3.5-2.789978,4.459961-4.72998.840027.199951,1.690002.309998,2.550049.309998,2,0,4.009949-.550049,5.779968-1.640015l20.080017-12.419983c3.289978-2.030029,5.26001-5.630005,5.219971-9.490051l-.23999-19.759949,6.080017,10.199951c2.059998,3.440002,5.700012,5.360046,9.450012,5.360046,1.809998,0,3.639954-.440002,5.329956-1.380005l20.450012-11.309998c3.280029-1.820007,5.369995-5.179993,5.619995-8.890015.950012.27002,1.940002.400024,2.920044.400024,1.809998,0,3.609985-.440002,5.25-1.330017l34.319946-18.619995c.410034-.220032.800049-.460022,1.170044-.730042,24.469971-17.549988,33.48999-41.519958,36.75-58.539978,3.619995-18.869995,1.929993-38.76001-4.369995-51.859985-3.619995-7.690002-9.490051-12.929993-16.960022-15.150024-2.77002-.829956-5.570007-1.169983-8.299988-1.169983h-.119995c.320007-.22998.639954-.440002.969971-.669983,12.290039-8.630005,19.52002-18.820007,23.76001-28.300049.929993,2.120056,2.52002,3.930054,4.590027,5.120056,1.699951.969971,3.579956,1.459961,5.469971,1.459961,1.940002,0,3.869995-.51001,5.599976-1.539978l45.650024-27.02002c.220032-.130005.450012-.279968.659973-.429993,8.360046-5.799988,14.210022-13.299988,18.120056-21.169983,1,1.779968,2.47998,3.279968,4.339966,4.289978,1.640015.880005,3.440002,1.320007,5.22998,1.320007,2.050049,0,4.100037-.580017,5.900024-1.719971l23-14.600037c3.159973-2,5.080017-5.469971,5.109985-9.210022v-.359985c.360046.27002.73999.52002,1.140015.75,1.679993.940002,3.530029,1.400024,5.380005,1.400024,1.98999,0,3.97998-.540039,5.73999-1.609985l19.720032-12.050049c3.309937-2.019958,5.309937-5.639954,5.259888-9.519958l-.23999-20.049988,6.110107,10.149963c2.060059,3.429993,5.689941,5.330017,9.429932,5.330017,1.810059,0,3.630127-.440002,5.320068-1.369995l20.449951-11.320007c3.51001-1.950012,5.679932-5.650024,5.670044-9.669983l-.079956-23.75c4.98999,8.289978,13.219971,12.949951,23.209961,12.949951.119995,0,.23999-.009949.369995-.009949,12.779907-.140015,26.029907-7.800049,35.48999-19.580017.640015.109985,1.289917.169983,1.940063.169983,1.899902,0,3.799927-.48999,5.48999-1.469971l12.049927-6.929993c3.390015-1.960022,5.48999-5.560059,5.51001-9.470032l.369995-58.419983c.01001-1.77002-.400024-3.480042-1.169922-5,.819946-1.630005,1.22998-3.450012,1.159912-5.320007ZM405.689913,287.675018c2.200012,0,4.75.369995,6.940002,1.830017l56.599976,32.5s5.610046,2.799988,1.27002,7.259949c-.27002.26001-.570007.51001-.900024.77002l-57.699951,32.859985s-4.380005,3.650024-12.410034.369995l-57.330017-35.059998s-3.259949-2.75.190002-6.389954c.030029-.040039.070007-.070007.100037-.100037.659973-.619995,1.529968-1.26001,2.630005-1.909973l53.309998-30.669983c.369995,0,3.289978-1.460022,7.299988-1.460022ZM268.02994,364.355011l53.319946-30.669983s5.960022-2.830017,12.650024-.330017c.419983.200012.820007.429993,1.219971.700012l56.600037,32.48999s6.570007,3.289978,0,8.400024l-57.690002,32.869995s-1.210022,1-3.340027,1.519958c-.019958,0-.039978.01001-.059998.01001-2.079956.390015-4.97998.330017-8.649963-1.169983l-57.330017-35.049988s-4.75-4.02002,3.280029-8.77002ZM258.169893,362.535004c-.359985,0-4.73999,3.650024-12.409973.359985l-57.330017-35.049988s-3.26001-2.76001.190002-6.399963l.01001-.01001c.679993-.640015,1.570007-1.309998,2.719971-1.98999l53.309998-30.670044c.370056,0,3.290039-1.459961,7.309998-1.459961,2.190002,0,4.740051.359985,6.930054,1.820007l56.599976,32.5s5.530029,2.759949,1.380005,7.159973c-.01001.01001-.02002.02002-.030029.029968-.289978.280029-.609985.560059-.97998.840027l-57.700012,32.869995ZM329.379915,241.394989c2.190002,0,4.75.369995,6.940002,1.830017l56.589966,32.5s2.809998,1.400024,2.910034,3.809998c0,0,.01001,0,0,.01001-.090027,1.200012-.859985,2.619995-2.910034,4.210022l-57.690002,32.859985s-4.379944,3.659973-12.409973.369995l-57.330017-35.059998s-1.329956-1.119995-1.389954-2.880005c.089966-1.51001,1.169983-3.440002,4.669983-5.51001l53.320007-30.679993c.359985,0,3.279968-1.460022,7.299988-1.460022ZM192.449923,228.88504l53.309998-30.670044c0,.359985,3.289978-1.099976,7.299988-1.099976,2.190002,0,4.75.369995,6.940002,1.830017l56.599976,32.5s2.809998,1.399963,2.910034,3.809998c0,0,.01001,0,0,.009949-.090027,1.200012-.859985,2.620056-2.910034,4.210022l-57.699951,32.859985s-4.380005,3.660034-12.410034.369995l-57.330017-35.049988s-4.75-4.019958,3.290039-8.769958ZM111.569918,275.894989l.01001-.009949c.679993-.640015,1.570007-1.310059,2.719971-1.990051l53.320007-30.669983c.359985,0,3.280029-1.460022,7.299988-1.460022,2.190002,0,4.75.360046,6.940002,1.820007l56.600037,32.5s5.469971,2.73999,1.440002,7.100037c-.02002.019958-.040039.039978-.059998.059998-.300049.289978-.640015.579956-1.02002.880005l-57.690002,32.859985c0,.049988-.070007.140015-.210022.27002l-.159973.089966s-.630005.530029-1.790039,1.01001c-.029968.02002-.059998.030029-.099976.039978-2.059998.730042-5.5,1.070007-10.159973-1.049988l-57.330017-35.049988s-3.25-2.76001.190002-6.400024ZM21.559908,405.154999v-65.359985s.030029-.22998.119995-.580017c.039978-.149963.090027-.320007.150024-.5.469971-1.440002,1.659973-3.779968,4.399963-3.579956h.02002c.679993.139954,1.549988.47998,2.609985,1.009949l53.309998,31.040039c3.290039,1.820007,6.210022,4.380005,8.030029,7.669983,1.099976,1.820007,1.469971,5.469971,1.469971,7.299988l-.369995,64.27002s-.369995,4.01001-4.75,4.01001c-1.089966,0-2.190002-.360046-3.279968-.730042l-56.970032-33.589966s-4.73999-4.75-4.73999-10.960022ZM92.399935,625.514984s-.369995,4.02002-4.75,4.02002c-1.100037,0-2.190002-.359985-3.290039-.72998l-57.690002-33.590027s-4.75-4.75-4.75-10.959961v-64.630005s1.100037-7.300049,7.670044-3.650024l53.309998,31.039978c3.289978,1.820007,6.209961,4.380005,8.029968,7.670044,1.460022,1.079956,1.820007,5.029968,1.830017,6.869995l-.359985,63.959961ZM93.129915,537.425018s0,.039978-.02002.109985c0,.039978-.01001.090027-.019958.150024-.01001.039978-.02002.089966-.030029.130005-.029968.130005-.070007.269958-.119995.429993-.030029.089966-.059998.179993-.090027.279968-.019958.049988-.039978.110046-.069946.170044-.040039.089966-.080017.179993-.120056.269958-.029968.059998-.069946.130005-.099976.200012-.599976,1.080017-1.799988,2.27002-4.179993,2.27002-1.099976,0-2.190002-.360046-3.289978-.730042l-57.690002-33.589966s-4.75-4.75-4.75-10.950012v-65s1.099976-7.299988,7.669983-3.650024l53.309998,31.040039c3.289978,1.820007,6.210022,4.380005,8.039978,7.659973.160034.160034.309998.359985.450012.580017.73999,1.940002,1.01001,4.820007,1.01001,6.359985v64.27002ZM92.02994,362.894989l-57.330017-35.049988s-3.26001-2.76001.190002-6.399963l.01001-.01001c.679993-.640015,1.569946-1.309998,2.719971-1.98999l53.309998-30.670044c.369995,0,3.289978-1.459961,7.309998-1.459961,2.190002,0,4.73999.359985,6.940002,1.820007l56.590027,32.5s5.529968,2.759949,1.380005,7.159973c-.01001.01001-.02002.02002-.030029.029968-.289978.280029-.609985.560059-.97998.840027l-57.690002,32.869995c-.369995,0-4.75,3.650024-12.419983.359985ZM98.239901,448.975006v-65.359985s.030029-.179993.100037-.470032c.009949-.070007.029968-.139954.059998-.219971.089966-.330017.22998-.76001.429993-1.210022.029968-.070007.070007-.140015.099976-.219971,0-.01001.01001-.02002.02002-.040039.76001-1.509949,2.269958-3.130005,5.149963-2.269958.100037.029968.210022.070007.320007.109985.450012.169983.940002.400024,1.48999.669983l53.309998,31.040039c3.280029,1.819946,6.210022,4.380005,8.030029,7.669983,1.099976,1.820007,1.460022,5.469971,1.460022,7.299988l-.360046,64.26001s-.369995,4.02002-4.75,4.02002c-1.099976,0-2.190002-.360046-3.289978-.730042l-57.330017-33.589966s-4.73999-4.75-4.73999-10.960022ZM169.079928,669.334991s-.369995,4.380005-4.75,4.380005c-1.100037,0-2.190002-.359985-3.290039-.72998l-57.690002-33.590027s-4.75-4.75-4.75-10.949951v-65s1.100037-7.300049,7.670044-3.650024l53.679993,31.039978c3.279968,1.820007,6.209961,4.380005,8.029968,7.660034,1.090027,1.089966,1.450012,5.039978,1.460022,6.880005l-.359985,63.959961ZM169.809908,580.245026s0,.039978-.02002.109985c0,.039978-.009949.090027-.019958.150024-.01001.039978-.02002.089966-.030029.130005-.029968.129944-.070007.269958-.119995.429993-.029968.089966-.059998.179993-.089966.279968-.02002.049988-.040039.109985-.070007.169983-.040039.090027-.080017.180054-.119995.27002-.030029.059998-.070007.130005-.100037.200012-.599976,1.080017-1.799988,2.27002-4.179993,2.27002-1.099976,0-2.190002-.360046-3.289978-.730042l-57.690002-33.589966s-4.75-4.75-4.75-10.960022v-64.98999s.019958-.160034.089966-.429993v-.01001c.210022-.309998.540039-1.590027,1.26001-2.72998,0-.01001.01001-.02002.02002-.030029,1.099976-1.369995,3.01001-2.279968,6.299988-.450012l53.309998,31.030029c3.289978,1.830017,6.210022,4.390015,8.039978,7.669983.160034.160034.309998.359985.450012.580017.73999,1.940002,1.01001,4.809998,1.01001,6.359985v64.27002ZM168.709932,407.445038l-57.330017-35.050049s-4.73999-4.019958,3.289978-8.769958l53.309998-30.670044s.01001-.009949.040039-.019958c.199951-.080017,1.179993-.48999,2.630005-.850037.079956-.019958.169983-.039978.259949-.059998,2.700012-.589966,6.940002-.889954,11.309998,1.299988l56.600037,32.490051s6.570007,3.289978,0,8.399963l-57.690002,32.869995s-.02002.02002-.059998.040039c-.039978.029968-.090027.070007-.160034.119995-.089966.070007-.219971.149963-.379944.23999-1.460022.849976-5.51001,2.539978-11.820007-.039978ZM176.00992,493.894989v-65.369995s1.099976-7.299988,7.669983-3.649963l53.320007,31.039978c3.280029,1.830017,6.200012,4.380005,8.030029,7.669983.159973.160034.299988.340027.439941.550049.75,1.949951,1.02002,4.829956,1.02002,6.389954l-.369995,64.26001s-.359985,4.02002-4.73999,4.02002c-1.099976,0-2.190002-.369995-3.289978-.730042l-57.620056-33.549988c-1.049988-1.159973-4.459961-5.380005-4.459961-10.630005ZM246.849886,713.88504s-.359985,4.019958-4.73999,4.019958c-1.099976,0-2.190002-.369995-3.289978-.72998l-57.640015-33.570007c-1.059998-1.179993-4.429993-5.380005-4.429993-10.619995v-65.359985s1.090027-7.300049,7.659973-3.650024l53.680054,31.039978c1.639954.910034,3.190002,1.990051,4.549988,3.26001.049988.049988.099976.100037.149963.150024,1.160034,1.159973,2.170044,2.450012,2.970032,3.890015,1.089966,1.829956,1.459961,5.47998,1.459961,7.299988l-.369995,64.27002ZM247.579928,624.785004s-.360046,4.02002-4.73999,4.02002c-1.100037,0-2.190002-.359985-3.290039-.730042l-57.619995-33.549988c-1.049988-1.159973-4.450012-5.369995-4.450012-10.630005v-65.72998s.880005-5.909973,5.850037-4.429993c.099976.029968.209961.070007.320007.109985.449951.169983.940002.400024,1.48999.669983l53.320007,31.040039c3.279968,1.820007,6.199951,4.380005,8.029968,7.659973.140015.230042.26001.48999.390015.780029.789978,1.940002,1.070007,4.929993,1.070007,6.529968l-.369995,64.26001ZM245.389925,452.725006l-57.330017-35.049988s-4.73999-4.02002,3.289978-8.77002l53.309998-30.669983s5.940002-2.820007,12.610046-.349976c.019958.009949.039978.019958.059998.029968.409973.190002.820007.419983,1.209961.679993l56.600037,32.5s6.570007,3.290039,0,8.400024l-57.700012,32.859985s-.950012.789978-2.650024,1.340027c-.009949,0-.019958.009949-.039978.009949-2.059998.559998-5.159973.740051-9.359985-.97998ZM484.773836,581.031158c-.005859,8.516602-4.595215,16.446289-11.976562,20.695312l-205.70752,117.991211c-1.560059.897461-3.271973,1.34668-4.983887,1.34668-1.720703,0-3.441406-.453125-5.009277-1.360352-3.127441-1.80957-4.993652-5.047852-4.992188-8.660156l.117676-235.175781c.004395-8.37207,4.513184-16.170898,11.766602-20.351562l.003906-.00293,205.98291-118.311523c3.125488-1.802246,6.862793-1.800781,9.992188.009277,3.128418,1.809082,4.994141,5.046875,4.991211,8.660645l-.185059,235.15918ZM545.182528,536.978973l-54.772644,31.037842v-103.337708l24.465149-14.240906.365112,77.411987,29.942383-17.527222v26.656006ZM541.896151,350.386871l.365173,23.734802-28.481812,16.431763v15.336365l34.324219-20.083313v25.195374l-58.059021,33.228821,1.095459-102.607483,56.963562-33.593872.365173,24.465088-35.054565,20.083313v13.510559l28.481812-15.701416ZM599.224886,505.210846l-3.651611-16.796936-20.448486,11.319702-4.381775,22.639343-19.71814,11.319702,24.099976-117.578613,25.560608-13.875732,23.734802,88.731689-25.195374,14.240845ZM596.303621,384.345856l-34.324158,18.622742v-102.24231l30.307556-18.257568s23.734802-14.606018,32.863586,4.747009c9.128784,19.353027,10.224243,69.013489-28.846985,97.130127ZM683.209566,457.376068l-27.021118-45.278687.730286,60.615051-20.083313,12.4151v-103.337708l22.639343-13.875793,24.830322,38.340881-1.09552-52.216553,19.718201-11.319702.730286,103.337769-20.448486,11.319641ZM659.109652,344.17923c-19.353027-2.55603-23.369629-50.390869-10.954529-77.046875,12.415161-26.656006,29.577271-38.705994,44.913574-38.705994,14.971252,0,15.701538,27.386353,15.701538,27.386353l-22.274231,14.606018c2.190857-16.796936-13.875793-21.909058-17.892456,0-5.112122,24.099976-3.286377,47.834778,6.937866,44.548401,10.589417-3.286316,11.319702-23.734802,11.319702-23.734802l22.274231-10.224243c0,38.340881-30.672668,66.092346-50.025696,63.171143ZM780.704989,320.809601c9.128723,18.987854,9.859009,69.013489-28.846985,96.764954l-34.324158,18.622742v-101.877136l30.307495-18.257507s23.734863-14.606079,32.863647,4.746948ZM759.89139,290.136871c-27.751526,19.71814-40.531799,11.319702-39.43634-12.415161v-68.648315l24.465088-13.875732.365173,67.918091s.730286,12.4151,10.954529,5.112122c10.224243-7.30304,8.398499-14.240906,8.398499-14.240906l.365173-70.474182,19.71814-12.049988v69.743835s3.286316,29.212097-24.830261,48.930237ZM845.701815,239.38089l-45.643921,27.021179.365173-103.337769,41.262085-24.465088s14.606079-7.30304,19.353027,4.746948c4.747009,11.684875,1.095459,27.021179-9.128784,39.43634,0,0,11.684814-1.095459,13.51062,10.224243,1.825745,11.319702-1.825806,33.959045-19.718201,46.374146ZM902.665377,207.24765l-23.004517,14.606018-1.460571-103.702881,25.195374-13.875732-.730286,102.972595ZM966.201571,170.367401l-27.021118-44.913574.730347,60.615051-19.71814,12.049988v-103.337769l22.27417-13.510559,24.830322,37.975708-1.095581-52.216614,20.083374-11.319641.365112,103.337708-20.448486,11.319702ZM1041.057528,47.676666c-6.937744-.730286-12.780273,10.224243-14.240723,25.195435-1.460693,15.336365-1.825806,41.262024,10.589355,33.959045,12.415039-7.30304,10.589355-19.353027,10.589355-19.353027l-12.415161,7.668152,1.095337-23.004517,34.324219-19.71814-.365234,58.424133-12.049805,6.937866-2.921265-9.128723c-10.224243,25.925659-41.261963,39.071106-50.025757,18.257568-9.493896-20.81366-4.746826-52.216614,5.477295-74.125671,10.224121-21.909119,34.324219-35.419678,46.739258-33.22876,12.415161,2.55603,13.145508,23.004517,13.145508,23.004517l-23.369629,16.431763s.365234-10.954529-6.572754-11.319641Z" style="fill: #fff;"/>
  </g>
</svg>