<?xml version="1.0" encoding="utf-8"?>
<!-- Generator: Adobe Illustrator 25.2.3, SVG Export Plug-In . SVG Version: 6.00 Build 0)  -->
<svg version="1.2" baseProfile="tiny" id="Layer_1" xmlns="http://www.w3.org/2000/svg" xmlns:xlink="http://www.w3.org/1999/xlink"
	 x="0px" y="0px" viewBox="0 0 288 192.5" overflow="visible" xml:space="preserve">
<path fill="#FFFFFF" d="M20.2,147.9l-0.1,17.6c0,0-0.2,1.7-2.2,1l-15.8-9.2c-0.8-0.8-1.2-1.9-1.3-3v-17.9c0,0,0.3-2,2.1-1l14.7,8.5
	c0.9,0.5,1.7,1.2,2.2,2.1C20.1,146.5,20.2,147.2,20.2,147.9"/>
<path fill="#FFFFFF" d="M2,135c0.3,0,0.6,0.1,0.9,0.3l14.6,8.5c0.9,0.5,1.7,1.2,2.2,2.1c0.3,0.6,0.4,1.3,0.4,2l-0.1,17.6
	c-0.1,0.7-0.6,1.2-1.3,1.1c-0.3,0-0.6-0.1-0.9-0.2l-15.8-9.2c-0.8-0.8-1.2-1.9-1.3-3v-17.9C0.8,136.3,1,135,2,135 M2,134.3L2,134.3
	c-1.2,0-1.7,1.2-1.8,1.9l0,0.1v18c0.1,1.3,0.6,2.5,1.5,3.5l0.1,0.1l0.1,0l15.8,9.2l0,0l0.1,0c0.4,0.1,0.8,0.2,1.2,0.2
	c1,0,1.9-0.7,1.9-1.8v0v0l0.1-17.6c0-0.8-0.2-1.6-0.5-2.4c-0.6-1-1.5-1.8-2.5-2.4l-14.6-8.5C2.8,134.5,2.4,134.3,2,134.3"/>
<path fill="#FFFFFF" d="M20.4,123.5l-0.1,17.6c0,0-0.2,1.7-2.2,1l-15.8-9.2c-0.8-0.8-1.2-1.9-1.3-3v-17.9c0,0,0.3-2,2.1-1l14.6,8.5
	c0.9,0.5,1.7,1.2,2.2,2.1C20.3,122.1,20.4,122.8,20.4,123.5"/>
<path fill="#FFFFFF" d="M2.2,110.6c0.3,0,0.6,0.1,0.9,0.3l14.6,8.5c0.9,0.5,1.7,1.2,2.2,2.1c0.3,0.6,0.4,1.3,0.4,2l-0.1,17.6
	c-0.1,0.7-0.6,1.2-1.3,1.1c-0.3,0-0.6-0.1-0.9-0.2l-15.8-9.2c-0.8-0.8-1.2-1.9-1.3-3v-17.9C1,111.9,1.3,110.6,2.2,110.6 M2.2,109.9
	L2.2,109.9c-1.2,0-1.7,1.2-1.8,1.9l0,0.1v18c0.1,1.3,0.6,2.5,1.5,3.5l0.1,0.1l0.1,0l15.8,9.2l0.1,0l0.1,0c0.4,0.1,0.8,0.2,1.2,0.2
	c1,0,1.9-0.8,1.9-1.8v0v0l0.1-17.6c0-0.8-0.2-1.6-0.5-2.4c-0.6-1-1.5-1.8-2.5-2.4l-14.6-8.5C3.1,110.1,2.7,109.9,2.2,109.9"/>
<path fill="#FFFFFF" d="M20,99.4l-0.1,17.6c0,0-0.2,1.7-2.2,1L2,108.7c-0.8-0.8-1.2-1.9-1.3-3V87.7c0,0,0.3-2,2.1-1l14.6,8.5
	c0.9,0.5,1.7,1.2,2.2,2.1C19.9,98,20,98.7,20,99.4"/>
<path fill="#FFFFFF" d="M1.8,86.4c0.3,0,0.6,0.1,0.9,0.3l14.6,8.5c0.9,0.5,1.7,1.2,2.2,2.1c0.3,0.6,0.4,1.3,0.4,2l-0.1,17.6
	c-0.1,0.7-0.6,1.2-1.3,1.2c-0.3,0-0.6-0.1-0.9-0.2L2,108.7c-0.8-0.8-1.2-1.9-1.3-3V87.7C0.7,87.7,0.9,86.4,1.8,86.4 M1.8,85.8
	L1.8,85.8c-1.2,0-1.7,1.2-1.8,1.9l0,0.1v18c0.1,1.3,0.6,2.5,1.5,3.5l0.1,0.1l0.1,0l15.8,9.2l0.1,0l0.1,0c0.4,0.1,0.8,0.2,1.2,0.2
	c1,0,1.8-0.8,1.9-1.8v0v0l0.1-17.6c0-0.8-0.2-1.6-0.5-2.4c-0.6-1-1.5-1.8-2.5-2.4L3.1,86.2C2.7,85.9,2.3,85.8,1.8,85.8"/>
<path fill="#FFFFFF" d="M23,147c0.3,0,0.6,0.1,0.9,0.3l14.7,8.5c0.9,0.5,1.7,1.2,2.2,2.1c0.3,0.6,0.4,1.3,0.4,2l-0.1,17.6
	c-0.1,0.7-0.6,1.2-1.3,1.2c-0.3,0-0.6-0.1-0.9-0.2l-15.8-9.2c-0.8-0.8-1.2-1.9-1.3-3v-17.9C21.8,148.3,22,147,23,147 M23,146.3
	L23,146.3c-1.2,0-1.7,1.2-1.8,1.9l0,0.1v18c0.1,1.3,0.6,2.5,1.5,3.5l0.1,0.1l0.1,0l15.8,9.2l0,0l0.1,0c0.4,0.1,0.8,0.2,1.2,0.2
	c1,0,1.9-0.7,1.9-1.8v0v0l0.1-17.6c0-0.8-0.2-1.6-0.5-2.4c-0.6-1-1.5-1.8-2.5-2.4l-14.6-8.5C23.9,146.5,23.4,146.3,23,146.3"/>
<path fill="#FFFFFF" d="M23.2,122.6c0.3,0,0.6,0.1,0.9,0.3l14.6,8.5c0.9,0.5,1.7,1.2,2.2,2.1c0.3,0.6,0.4,1.3,0.4,2l-0.1,17.6
	c-0.1,0.7-0.6,1.2-1.3,1.1c-0.3,0-0.6-0.1-0.9-0.2l-15.8-9.2c-0.8-0.8-1.2-1.9-1.3-3v-17.9C22.1,123.9,22.3,122.6,23.2,122.6
	 M23.2,121.9L23.2,121.9c-1.2,0-1.7,1.2-1.8,1.9l0,0.1v18c0.1,1.3,0.6,2.5,1.5,3.5l0.1,0.1l0.1,0l15.8,9.2l0.1,0l0.1,0
	c0.4,0.1,0.8,0.2,1.2,0.2c1,0,1.8-0.8,1.9-1.8v0v0l0.1-17.6c0-0.8-0.2-1.6-0.5-2.4c-0.6-1-1.5-1.8-2.5-2.4l-14.6-8.5
	C24.1,122.1,23.7,121.9,23.2,121.9"/>
<path fill="#FFFFFF" d="M22.9,98.4c0.3,0,0.6,0.1,0.9,0.3l14.6,8.5c0.9,0.5,1.7,1.2,2.2,2.1c0.3,0.6,0.4,1.3,0.4,2L41,128.9
	c-0.1,0.7-0.6,1.2-1.3,1.1c-0.3,0-0.6-0.1-0.9-0.2L23,120.7c-0.8-0.8-1.2-1.9-1.3-3V99.7C21.7,99.7,21.9,98.4,22.9,98.4 M22.9,97.8
	L22.9,97.8c-1.2,0-1.7,1.2-1.8,1.9l0,0.1v18c0.1,1.3,0.6,2.5,1.5,3.5l0.1,0.1l0.1,0l15.8,9.2l0.1,0l0.1,0c0.4,0.1,0.8,0.2,1.2,0.2
	c1,0,1.8-0.7,1.9-1.7v0v0l0.1-17.6c0-0.8-0.2-1.6-0.5-2.4c-0.6-1-1.5-1.8-2.5-2.4l-14.6-8.5C23.7,97.9,23.3,97.8,22.9,97.8"/>
<path fill="#FFFFFF" d="M62.6,172.1l-0.1,17.6c0,0-0.2,1.7-2.2,1l-15.8-9.2c-0.8-0.8-1.2-1.9-1.3-3v-17.9c0,0,0.3-2,2.1-1l14.7,8.5
	c0.9,0.5,1.7,1.2,2.2,2.1C62.4,170.7,62.6,171.4,62.6,172.1"/>
<path fill="#FFFFFF" d="M44.3,159.2c0.3,0,0.6,0.1,0.9,0.3l14.7,8.5c0.9,0.5,1.7,1.2,2.2,2.1c0.3,0.6,0.4,1.3,0.4,2l-0.1,17.6
	c-0.1,0.7-0.6,1.2-1.3,1.1c-0.3,0-0.6-0.1-0.9-0.2l-15.8-9.2c-0.8-0.8-1.2-1.9-1.3-3v-17.9C43.2,160.5,43.4,159.2,44.3,159.2
	 M44.3,158.5L44.3,158.5c-1.2,0-1.7,1.2-1.8,1.9l0,0.1v18c0.1,1.3,0.6,2.5,1.5,3.5l0.1,0.1l0.1,0l15.8,9.2l0,0l0.1,0
	c0.4,0.1,0.8,0.2,1.2,0.2c1,0,1.9-0.8,1.9-1.8v0v0l0.1-17.6c0-0.8-0.2-1.6-0.5-2.4c-0.6-1-1.5-1.8-2.5-2.4l-14.6-8.5
	C45.2,158.6,44.8,158.5,44.3,158.5"/>
<path fill="#FFFFFF" d="M62.8,147.7l-0.1,17.6c0,0-0.2,1.7-2.2,1L44.7,157c-0.8-0.8-1.2-1.9-1.3-3v-17.9c0,0,0.3-2,2.1-1l14.6,8.5
	c0.9,0.5,1.7,1.2,2.2,2.1C62.6,146.3,62.8,147,62.8,147.7"/>
<path fill="#FFFFFF" d="M44.6,134.8c0.3,0,0.6,0.1,0.9,0.3l14.6,8.5c0.9,0.5,1.7,1.2,2.2,2.1c0.3,0.6,0.4,1.3,0.4,2l-0.1,17.6
	c-0.1,0.7-0.6,1.2-1.3,1.1c-0.3,0-0.6-0.1-0.9-0.2L44.7,157c-0.8-0.8-1.2-1.9-1.3-3v-17.9C43.4,136.1,43.6,134.8,44.6,134.8
	 M44.6,134.1L44.6,134.1c-1.2,0-1.7,1.2-1.8,1.9l0,0.1v18c0.1,1.3,0.6,2.5,1.5,3.5l0.1,0.1l0.1,0l15.8,9.2l0.1,0l0.1,0
	c0.4,0.1,0.8,0.2,1.2,0.2c1,0,1.9-0.8,1.9-1.8v0v0l0.1-17.6c0-0.8-0.2-1.6-0.5-2.4c-0.6-1-1.5-1.8-2.5-2.4l-14.6-8.5
	C45.5,134.3,45,134.1,44.6,134.1"/>
<path fill="#FFFFFF" d="M62.4,123.6l-0.1,17.6c0,0-0.2,1.7-2.2,1l-15.8-9.2c-0.8-0.8-1.2-1.9-1.3-3v-17.9c0,0,0.3-2,2.1-1l14.6,8.5
	c0.9,0.5,1.7,1.2,2.2,2.1C62.2,122.2,62.4,122.9,62.4,123.6"/>
<path fill="#FFFFFF" d="M44.2,110.6c0.3,0,0.6,0.1,0.9,0.3l14.6,8.5c0.9,0.5,1.7,1.2,2.2,2.1c0.3,0.6,0.4,1.3,0.4,2l-0.1,17.6
	c-0.1,0.7-0.6,1.2-1.3,1.1c-0.3,0-0.6-0.1-0.9-0.2l-15.8-9.2c-0.8-0.8-1.2-1.9-1.3-3v-17.9C43,111.9,43.2,110.6,44.2,110.6
	 M44.2,109.9L44.2,109.9c-1.2,0-1.7,1.2-1.8,1.9l0,0.1v18c0.1,1.3,0.6,2.5,1.5,3.5l0.1,0.1l0.1,0l15.8,9.2l0.1,0l0.1,0
	c0.4,0.1,0.8,0.2,1.2,0.2c1,0,1.8-0.8,1.9-1.8v0v0l0.1-17.6c0-0.8-0.2-1.6-0.5-2.4c-0.6-1-1.5-1.8-2.5-2.4l-14.6-8.5
	C45.1,110.1,44.7,110,44.2,109.9"/>
<path fill="#FFFFFF" d="M20,94.4L4.3,84.8c0,0-1.3-1.1,0.9-2.4L19.8,74c1.2-0.5,2.7-0.5,3.9,0.1L39.1,83c0,0,1.8,0.9,0,2.3l-15.8,9
	C23.3,94.3,22.1,95.3,20,94.4"/>
<path fill="#FFFFFF" d="M21.7,73.6c0.7,0,1.3,0.2,1.9,0.5L39.1,83c0,0,1.8,0.9,0,2.3l-15.8,9c-0.5,0.3-1,0.5-1.6,0.5
	c-0.6,0-1.2-0.1-1.8-0.4L4.3,84.8c0,0-1.3-1.1,0.9-2.4L19.8,74C20.4,73.7,21,73.6,21.7,73.6 M21.7,72.9L21.7,72.9
	c-0.8,0-1.5,0.2-2.2,0.5l0,0l0,0L4.8,81.8c-0.8,0.3-1.4,1.1-1.6,2c0,0.6,0.2,1.1,0.6,1.5l0,0l0,0l15.7,9.6l0,0l0,0
	c0.6,0.3,1.3,0.4,2,0.4c0.7,0,1.4-0.2,2-0.6l15.7-9l0,0l0,0c0.6-0.4,1-1.1,1-1.9c-0.1-0.7-0.5-1.2-1.1-1.5L24,73.5
	C23.3,73.1,22.5,72.9,21.7,72.9"/>
<path fill="#FFFFFF" d="M41,82.2l-15.7-9.6c0,0-1.3-1.1,0.9-2.4l14.6-8.4c1.2-0.5,2.7-0.5,3.9,0.1l15.5,8.9c0,0,1.8,0.9,0,2.3
	l-15.8,9C44.4,82.1,43.2,83.1,41,82.2"/>
<path fill="#FFFFFF" d="M42.7,61.4c0.7,0,1.3,0.2,1.9,0.5l15.5,8.9c0,0,1.8,0.9,0,2.3l-15.8,9c-0.5,0.3-1,0.5-1.6,0.5
	c-0.6,0-1.2-0.1-1.8-0.4l-15.7-9.6c0,0-1.3-1.1,0.9-2.4l14.6-8.4C41.4,61.6,42.1,61.4,42.7,61.4 M42.7,60.8L42.7,60.8
	c-0.8,0-1.5,0.2-2.2,0.5l0,0l0,0l-14.6,8.4c-0.8,0.3-1.4,1.1-1.6,2c0,0.6,0.2,1.1,0.6,1.5l0,0l0,0l15.7,9.6l0,0l0,0
	c0.6,0.3,1.3,0.4,2,0.4c0.7,0,1.4-0.2,2-0.6l15.7-9l0,0l0,0c0.6-0.4,1-1.1,1-1.9c-0.1-0.7-0.5-1.2-1.1-1.5L45,61.3
	C44.3,60.9,43.5,60.8,42.7,60.8"/>
<path fill="#FFFFFF" d="M62.3,69.7l-15.7-9.6c0,0-1.3-1.1,0.9-2.4l14.6-8.4c1.2-0.5,2.7-0.5,3.9,0.1l15.5,8.9c0,0,1.8,0.9,0,2.3
	l-15.8,9C65.7,69.6,64.5,70.6,62.3,69.7"/>
<path fill="#FFFFFF" d="M64.1,48.9c0.7,0,1.3,0.2,1.9,0.5l15.5,8.9c0,0,1.8,0.9,0,2.3l-15.8,9c-0.5,0.3-1,0.5-1.6,0.5
	c-0.6,0-1.2-0.1-1.8-0.4l-15.7-9.6c0,0-1.3-1.1,0.9-2.4l14.6-8.4C62.7,49.1,63.4,48.9,64.1,48.9 M64.1,48.3L64.1,48.3
	c-0.8,0-1.5,0.2-2.2,0.5l0,0l0,0l-14.6,8.4c-0.8,0.3-1.4,1.1-1.6,2c0,0.6,0.2,1.1,0.6,1.5l0,0l0,0L62,70.2l0,0l0,0
	c0.6,0.3,1.3,0.4,2,0.4c0.7,0,1.4-0.2,2-0.6l15.7-9l0,0l0,0c0.6-0.4,1-1.1,1-1.9c-0.1-0.7-0.5-1.2-1.1-1.5l-15.4-8.9
	C65.6,48.4,64.9,48.3,64.1,48.3"/>
<path fill="#FFFFFF" d="M42.8,85.8c0.7,0,1.3,0.2,1.9,0.5l15.5,8.9c0,0,1.8,0.9,0,2.3l-15.8,9c-0.5,0.3-1,0.5-1.6,0.5
	c-0.6,0-1.2-0.1-1.8-0.4l-15.7-9.6c0,0-1.3-1.1,0.9-2.4l14.6-8.4C41.5,85.9,42.1,85.8,42.8,85.8 M42.8,85.1L42.8,85.1
	c-0.8,0-1.5,0.2-2.2,0.5l0,0l0,0L25.9,94c-0.8,0.3-1.4,1.1-1.6,2c0,0.6,0.2,1.1,0.6,1.5l0,0l0,0l15.7,9.6l0,0l0,0
	c0.6,0.3,1.3,0.4,2,0.4c0.7,0,1.4-0.2,2-0.6l15.7-9l0,0l0,0c0.6-0.4,1-1.1,1-1.9c-0.1-0.7-0.5-1.2-1.1-1.5l-15.4-8.9
	C44.4,85.3,43.6,85.1,42.8,85.1"/>
<path fill="#FFFFFF" d="M63.8,73.6c0.7,0,1.3,0.2,1.9,0.5L81.2,83c0,0,1.8,0.9,0,2.3l-15.8,9c-0.5,0.3-1,0.5-1.6,0.5
	c-0.6,0-1.2-0.1-1.8-0.4l-15.7-9.6c0,0-1.3-1.1,0.9-2.4L61.9,74C62.5,73.7,63.1,73.6,63.8,73.6 M63.8,72.9L63.8,72.9
	c-0.8,0-1.5,0.2-2.2,0.5l0,0l0,0l-14.6,8.4c-0.8,0.3-1.4,1.1-1.6,2c0,0.6,0.2,1.1,0.6,1.5l0,0l0,0l15.7,9.6l0,0l0,0
	c0.6,0.3,1.3,0.4,2,0.4c0.7,0,1.4-0.2,2-0.6l15.7-9l0,0l0,0c0.6-0.4,1-1.1,1-1.9c-0.1-0.7-0.5-1.2-1.1-1.5l-15.4-8.9
	C65.4,73.1,64.6,72.9,63.8,72.9"/>
<path fill="#FFFFFF" d="M85,61.3c0.7,0,1.3,0.2,1.9,0.5l15.5,8.9c0,0,1.8,0.9,0,2.3l-15.8,9c-0.5,0.3-1,0.5-1.6,0.5
	c-0.6,0-1.2-0.1-1.8-0.4l-15.7-9.6c0,0-1.3-1.1,0.9-2.4l14.6-8.4C83.7,61.5,84.3,61.3,85,61.3 M85,60.7L85,60.7
	c-0.8,0-1.5,0.2-2.2,0.5l0,0l0,0l-14.6,8.4c-0.8,0.3-1.4,1.1-1.6,2c0,0.6,0.2,1.1,0.6,1.5l0,0l0,0l15.7,9.6l0,0l0,0
	c0.6,0.3,1.3,0.4,2,0.4c0.7,0,1.4-0.2,2-0.6l15.7-9l0,0l0,0c0.6-0.4,1-1.1,1-1.9c-0.1-0.7-0.5-1.2-1.1-1.5l-15.4-8.9
	C86.6,60.8,85.8,60.6,85,60.7"/>
<path fill="#FFFFFF" d="M62,118.9l-15.7-9.6c0,0-1.3-1.1,0.9-2.4l14.6-8.4c1.2-0.5,2.7-0.5,3.9,0.1l15.5,8.9c0,0,1.8,0.9,0,2.3
	l-15.8,9C65.3,118.8,64.2,119.8,62,118.9"/>
<path fill="#FFFFFF" d="M63.7,98.2c0.7,0,1.3,0.2,1.9,0.5l15.5,8.9c0,0,1.8,0.9,0,2.3l-15.8,9c-0.5,0.3-1,0.5-1.6,0.5
	c-0.6,0-1.2-0.1-1.8-0.4l-15.7-9.6c0,0-1.3-1.1,0.9-2.4l14.6-8.4C62.4,98.3,63.1,98.2,63.7,98.2 M63.7,97.5L63.7,97.5
	c-0.8,0-1.5,0.2-2.2,0.5l0,0l0,0l-14.6,8.4c-0.8,0.3-1.4,1.1-1.6,2c0,0.6,0.2,1.1,0.6,1.5l0,0l0,0l15.7,9.6l0,0l0,0
	c0.6,0.3,1.3,0.4,2,0.4c0.7,0,1.4-0.2,2-0.6l15.7-9l0,0l0,0c0.6-0.4,1-1.1,1-1.9c-0.1-0.7-0.5-1.2-1.1-1.5L66,98.1
	C65.3,97.7,64.5,97.5,63.7,97.5"/>
<path fill="#FFFFFF" d="M83,106.8l-15.7-9.6c0,0-1.3-1.1,0.9-2.4l14.6-8.4c1.2-0.5,2.7-0.5,3.9,0.1l15.5,8.9c0,0,1.8,0.9,0,2.3
	l-15.8,9C86.4,106.7,85.2,107.7,83,106.8"/>
<path fill="#FFFFFF" d="M84.7,86c0.7,0,1.3,0.2,1.9,0.5l15.5,8.9c0,0,1.8,0.9,0,2.3l-15.8,9c-0.5,0.3-1,0.5-1.6,0.5
	c-0.6,0-1.2-0.1-1.8-0.4l-15.7-9.6c0,0-1.3-1.1,0.9-2.4l14.6-8.4C83.4,86.1,84.1,86,84.7,86 M84.7,85.3L84.7,85.3
	c-0.8,0-1.5,0.2-2.2,0.5l0,0l0,0l-14.6,8.4c-0.8,0.3-1.4,1.1-1.6,2c0,0.6,0.2,1.1,0.6,1.5l0,0l0,0l15.7,9.6l0,0l0,0
	c0.6,0.3,1.3,0.4,2,0.4c0.7,0,1.4-0.2,2-0.6l15.7-9l0,0l0,0c0.6-0.4,1-1.1,1-1.9c-0.1-0.7-0.5-1.2-1.1-1.5L87,85.9
	C86.3,85.5,85.5,85.3,84.7,85.3"/>
<path fill="#FFFFFF" d="M104.2,94.5l-15.7-9.6c0,0-1.3-1.1,0.9-2.4l14.6-8.4c1.2-0.5,2.7-0.5,3.9,0.1l15.5,8.9c0,0,1.8,0.9,0,2.3
	l-15.8,9C107.6,94.4,106.4,95.4,104.2,94.5"/>
<path fill="#FFFFFF" d="M105.9,73.7c0.7,0,1.3,0.2,1.9,0.5l15.5,8.9c0,0,1.8,0.9,0,2.3l-15.8,9c-0.5,0.3-1,0.5-1.6,0.5
	c-0.6,0-1.2-0.1-1.8-0.4l-15.7-9.6c0,0-1.3-1.1,0.9-2.4l14.6-8.4C104.6,73.8,105.3,73.7,105.9,73.7 M105.9,73L105.9,73
	c-0.8,0-1.5,0.2-2.2,0.5l0,0l0,0L89,81.9c-0.8,0.3-1.4,1.1-1.6,2c0,0.6,0.2,1.1,0.6,1.5l0,0l0,0l15.7,9.6l0,0l0,0
	c0.6,0.3,1.3,0.4,2,0.4c0.7,0,1.4-0.2,2-0.6l15.7-9l0,0l0,0c0.6-0.4,1-1.1,1-1.9c-0.1-0.7-0.5-1.2-1.1-1.5l-15.4-8.9
	C107.5,73.2,106.7,73,105.9,73"/>
<path fill="#FFFFFF" d="M125,86.9c0.6,0,1.5,0.2,1.5,1.6v66.2c0,0,0.1,2-2.8,3.8l-56.7,32.6c-0.4,0.2-0.9,0.3-1.3,0.3
	c-0.6,0-1.1-0.3-0.9-1.5v-65.5c-0.1-1.9,0.9-3.8,2.6-4.8L124.6,87C124.7,86.9,124.9,86.9,125,86.9 M125,86.3L125,86.3
	c-0.2,0-0.4,0-0.6,0.1l-0.1,0l-0.1,0l-57.1,32.9c-1.9,1.1-3,3.2-2.9,5.4V190c-0.1,0.6,0,1.2,0.3,1.7c0.3,0.4,0.8,0.6,1.3,0.5
	c0.6,0,1.1-0.2,1.6-0.4l0,0l0,0l56.7-32.6c3.2-2,3.1-4.3,3.1-4.4V88.6c0.1-1.2-0.8-2.2-1.9-2.3C125.2,86.3,125.1,86.3,125,86.3"/>
<path fill="#FFFFFF" d="M79.5,125.8l5.6-5.3c0,0-1.9-5-6.9-3.1s-9,7.6-10.3,12.3s0.3,9.4,4.7,8.3s6.3-1.8,6.3-0.1s-4.8,5.8-6.5,1.7
	l-6,5.2c0,0,0.4,4.7,4.5,4.8s9.6-3.1,12.8-9.3s1.9-13.8-3.2-12.7c0,0-3.6,1-4.9,1.3s-1.8-0.2-1.1-1.8S78.1,123.4,79.5,125.8"/>
<path fill="#FFFFFF" d="M105.4,107.2c-1.3-3.9-6.8-1.3-6.8-1.3L88,111.9L88,140.3l6.8-3.8l-0.2-10.2l3.7-2
	C106.4,118.8,106.7,111.2,105.4,107.2 M97.1,118.7l-2.4,1.2v-5l2.4-1.4c0,0,2.1-1,2.3,1C99.7,116.2,98.7,117.9,97.1,118.7"/>
<polygon fill="#FFFFFF" points="114.8,113.9 122.6,109.3 122.5,102.8 114.8,107.1 114.7,103.4 124.4,97.9 124.2,91.3 108.6,100.4 
	108.3,128.6 124.2,119.4 124.2,112.5 114.8,118 "/>
<polygon fill="#FFFFFF" points="114.5,147.7 122.3,143.2 122.1,136.6 114.4,141 114.4,137.3 124,131.8 123.9,125.1 108.3,134.3 
	108,162.4 123.9,153.3 123.9,146.4 114.5,151.9 "/>
<polygon fill="#FFFFFF" points="135.5,101.7 143.3,97.1 143.2,90.6 135.4,95 135.4,91.2 145,85.7 144.9,79.1 129.3,88.2 129,116.4 
	144.9,107.2 144.9,100.4 135.5,105.9 "/>
<path fill="#FFFFFF" d="M166,73.4c-2.5-5.3-9-1.3-9-1.3l-8.3,5V105l9.4-5.1C168.8,92.3,168.5,78.6,166,73.4 M157.5,93.4l-2.3,1.1V80
	l2-1.3c0,0,2.8-1.6,3.4,3.6S159.1,92.3,157.5,93.4"/>
<path fill="#FFFFFF" d="M208.6,82.5c-2.5-5.3-9-1.3-9-1.3l-8.3,5v27.9l9.4-5.1C211.3,101.4,211.1,87.8,208.6,82.5 M200,102.5
	l-2.3,1.1V89.1l2-1.3c0,0,2.8-1.6,3.4,3.6S201.7,101.4,200,102.5"/>
<path fill="#FFFFFF" d="M182.8,68.8l6.1-4c0,0-0.2-7.5-4.3-7.5s-8.9,3.3-12.3,10.6s-2.3,20.4,3,21.1s13.7-6.8,13.7-17.3l-6.1,2.8
	c0,0-0.2,5.6-3.1,6.5s-3.3-5.6-1.9-12.2C179,62.8,183.4,64.1,182.8,68.8"/>
<path fill="#FFFFFF" d="M192.1,52l6.7-3.8l0.1,18.6c0,0,0.2,3.4,3,1.4s2.3-3.9,2.3-3.9l0.1-19.3l5.4-3.3v19.1
	c0.2,5.3-2.3,10.4-6.8,13.4c-7.6,5.4-11.1,3.1-10.8-3.4L192.1,52z"/>
<path fill="#FFFFFF" d="M231.8,47.5c-0.3-1.8-1.9-3-3.7-2.8c2.8-3.4,3.8-7.6,2.5-10.8s-5.3-1.3-5.3-1.3l-11.3,6.7L214,67.5l12.5-7.4
	C231.3,56.9,232.3,50.6,231.8,47.5 M220.1,41.8l2.9-1.7c0,0,1.6-0.8,2,0.6s-0.7,3.2-1.5,3.8l-3.5,2L220.1,41.8z M223.8,55.4l-3.6,2
	l0-4.8l3-1.8c0,0,1.6-0.8,2,0.6S224.5,54.9,223.8,55.4"/>
<polygon fill="#FFFFFF" points="235.7,55.5 242,51.4 242.2,23.3 235.3,27.1 "/>
<polygon fill="#FFFFFF" points="71.9,183.6 78.2,179.6 78.4,151.4 71.5,155.2 "/>
<polygon fill="#FFFFFF" points="252.2,45.6 246.8,48.9 246.8,20.7 252.9,16.9 259.7,27.3 259.4,13.1 264.9,10 265,38.3 259.4,41.4 
	252,29 "/>
<polygon fill="#FFFFFF" points="174.7,124.2 169.2,127.5 169.2,99.2 175.4,95.5 182.2,105.9 181.9,91.6 187.3,88.6 187.5,116.8 
	181.9,119.9 174.5,107.6 "/>
<path fill="#FFFFFF" d="M283.9,24.4l0.8,2.5l3.3-1.9L288,9l-9.4,5.4l-0.3,6.3l3.4-2.1c0.2,2.2-0.9,4.3-2.9,5.3
	c-3.4,2-3.3-5.1-2.9-9.3s2-7.1,3.9-6.9s1.8,3.1,1.8,3.1l6.4-4.5c0,0-0.2-5.6-3.6-6.3s-10,3.1-12.8,9.1c-2.8,6-4.1,14.6-1.5,20.3
	S281.1,31.5,283.9,24.4"/>
<path fill="#FFFFFF" d="M103.9,165.1l-3.9-10.1c0.2-0.2,0.4-0.5,0.6-0.7c3.1-4.6,3.4-9.4,2.5-12.2c-1.3-3.9-7.6-0.9-7.6-0.9
	l-10.6,5.9v28.7l6.8-4.1l-0.2-10.6l1-0.4c0.3-0.1,0.5-0.2,0.8-0.4l3,8.9L103.9,165.1z M91.5,155.1v-5l3.2-1.8
	c0.6-0.4,1.4-0.2,1.8,0.3c0.1,0.2,0.2,0.5,0.2,0.7c0.3,2.7-2,4.1-2.8,4.6L91.5,155.1z"/>
<polygon fill="#FFFFFF" points="129.1,150.3 129.1,121.9 135.8,118 135.9,139.3 144.1,134.5 144.1,141.8 "/>
<path fill="#FFFFFF" d="M158.9,133.1l6.9-3.9l-6.5-24.3l-7,3.8l-6.6,32.2l5.4-3.1l1.2-6.2l5.6-3.1L158.9,133.1z M153.5,124.2l1.5-8
	l1.5,6.5L153.5,124.2z"/>
</svg>
