<svg xmlns="http://www.w3.org/2000/svg" version="1.0" viewBox="0 0 650.1 349.5"><path d="M801.6-1666.5c-162 0-292.7 131-292.7 293s130 292.2 292 292.2 293.2-129.7 293.2-291.7-130.3-293.6-292.3-293.6h-.2zm0 66.5a226 226 0 0 1 226.1 226.5A226 226 0 0 1 801.6-1147a226.6 226.6 0 1 1 0-453z" style="opacity:1;fill:#eeeeec;fill-opacity:1;stroke:none" transform="matrix(.5 0 0 .5 -77.2 833.4)"/><path d="M609.4-1484.4 801.6-1595 993-1484.3l-.4 221.9L801-1151.5l-192-110.9.3-222z" style="opacity:1;fill:#eeeeec;fill-opacity:1;stroke:none" transform="matrix(.5 0 0 .5 -77.2 833.4)"/><path d="m703.3-1208-94-54.3-.2-109.3c-.2-60 0-109.5.4-109.9.4-.4 157.6 89.8 186.8 107.2l3.1 1.9v109.4c0 87-.2 109.5-1 109.5-.6 0-43.4-24.5-95.1-54.4zm52.8-26.2c0-13-.1-15-1.4-16.5-.8-1-17.8-10.6-37.7-21.4-39.4-21.5-43-23.7-48.3-29-6.4-6.3-6.4-6.4-6.7-38.7-.3-27.7-.3-28.6 1.3-29.7 3.4-2.5 2.8-2.7 51 23.9 42.3 23.3 40 22.2 41 20.6.5-.6.8-7.8.8-15.9 0-12.8-.1-14.8-1.4-16.3-1.7-2-79.4-45-85.6-47.5-14.1-5.5-23-3.2-27.7 7.4-2.9 6.5-3.4 13.5-3.4 44.5 0 40.5 1.7 51.3 10.1 65.7 4.2 7 15.6 18.7 23.3 23.7 3 2 22.8 13 44 24.6 28.3 15.4 39 20.8 39.7 20.2.8-.6 1-4.8 1-15.6zm235.4-262A226.2 226.2 0 0 0 814-1599.4l-9.9-.6-.2-33c-.2-27.9 0-33.3 1-33.6a291 291 0 0 1 133.5 33.8c38.1 20 71.5 48.4 98 83.6a186 186 0 0 1 17.6 27.2c-.3.7-56.2 33.1-57.1 33.1-.3 0-2.7-3.3-5.3-7.3z" style="fill:#ddda45" transform="matrix(.5 0 0 .5 -77.2 833.4)"/><path d="M1027.4-1245a472.4 472.4 0 0 1-27.7-16.9c-.5-.7.8-4.2 3.8-10.2 32-63.8 32-139.2 0-203a37.6 37.6 0 0 1-4-10c.4-1.1 54.3-32.3 56.1-32.4 3.8-.3 21.4 40 28 64.2a274.8 274.8 0 0 1 10.8 79.7c0 29.6-3 51.4-10.7 79.7-6.5 23.4-24 63.9-28 64.4-.6 0-13.4-7-28.3-15.6z" style="fill:#e7762a" transform="matrix(.5 0 0 .5 -77.2 833.4)"/><path d="M803.6-1262.9v-109.3l8.5-5a20588 20588 0 0 1 181-104c.1.3.3 49.4.3 109.2 0 89.6-.1 109-1 110-.7.5-39 22.8-85.2 49.5l-93.2 53.7c-5 3-9.4 5.3-9.8 5.3-.3 0-.6-49.2-.6-109.4zm57.8 36.2 5-3 7.5-21.6 7.5-21.6 26.6-14.8a868.9 868.9 0 0 1 27.2-14.8 82 82 0 0 1 6.6 10.9 175 175 0 0 0 7.4 12.6l1.5 1.8 9.4-5.4c5.2-3 9.6-6 9.8-6.7.1-.7-8.2-17.2-18.4-36.6l-26-49.2c-8-15.2-9.7-17-14.7-16-3.2.8-8.2 5.7-10.4 10.4-1 2-10 27.2-20 55.8l-28.1 79.3c-5.3 15-9.4 27.6-9.1 28 .5 1 7.6-2.7 18.2-9zm39.4-102.7c4-11.7 7.5-21.2 8-21 1.1.3 14.7 25.4 14.2 26.3a380 380 0 0 1-28 15.4c-1.2.5 0-4 5.8-20.7zM540-1242a290.3 290.3 0 0 1-31-132.5 286.5 286.5 0 0 1 37.4-143 957 957 0 0 1 57 32c.3.3-1.4 4.6-4 9.6a234 234 0 0 0-23.1 77.2c-1.5 12-1.3 40.2.4 52.7 3.7 27.4 11.6 53 23.3 75.6 3 5.8 3.6 7.6 2.8 8.3-1.8 1.7-54.6 32-55.8 32-.6 0-3.7-5.2-7-12z" style="fill:#e02826" transform="matrix(.5 0 0 .5 -77.2 833.4)"/><path d="M578.5-1504.7c-15-8.7-28-16.3-28.5-16.9-1-.9-.1-2.6 4.4-9.7a293.8 293.8 0 0 1 235.9-135l8.7-.3v66.6l-10 .6a224.5 224.5 0 0 0-147.3 66 202 202 0 0 0-28 34.1c-3.7 5.5-7 10.1-7.3 10.2-.3.1-12.8-6.9-28-15.6z" style="fill:#3d9c46" transform="matrix(.5 0 0 .5 -77.2 833.4)"/><path d="M323-969c-.3-.5-.4-11.9-.2-25.1l.2-24.2h24.5c27.3 0 29.8.4 34.6 5.5 2.2 2.2 2.5 3.2 2.7 8.5.3 7.8-1.2 11-6.8 13.8-3.4 1.8-5.5 2.2-14.5 2.6-8.6.3-10.6.7-10.6 1.7 0 .7 5.5 4.4 13.3 9 7.3 4.1 13.6 8 14.1 8.4.6.6-1.8.9-7.3.9h-8l-15-8.8a92 92 0 0 0-16.3-8.4c-.9.4-1.1 2.4-1.1 8.8v8.4h-4.7c-2.9 0-4.7-.4-5-1zm49-28.2c2.5-1.3 3-2.3 3-6.2 0-2.4-.5-3.8-1.8-5-1.5-1.4-3.4-1.6-20-1.8-13.3-.2-18.6 0-19.5.7-.7.7-1.1 2.7-1.1 5.8 0 8-1.5 7.5 19.2 7.5a90 90 0 0 0 20.1-1zm467.4 28.9a894 894 0 0 1 35-49.6 7 7 0 0 1 7.5.8c1.9 1.5 34 47.5 34 48.7 0 .7-9.4.6-10.4-.1-.5-.4-2.5-3-4.4-5.8-5.6-8.4-3.9-7.8-22.9-7.7-9.2 0-17.3.3-17.9.7-.6.3-3 3.4-5.4 6.8l-4.4 6.2-5.6.2c-3 .2-5.5 0-5.5-.2zm48.7-23c.7-1.1-8.8-14.9-10.4-14.9-1.5 0-10 12.2-10 14.4 0 1.3 1 1.4 9.9 1.4a34 34 0 0 0 10.5-.8zm32 19.3v-4.1l21.5-.3c19.9-.2 21.7-.4 23.3-1.8 1.3-1.2 1.8-2.6 1.8-5.2 0-6-1.5-6.5-20-7-17-.6-20.7-1.4-24.5-6-1.8-2-2.1-3.3-2.1-7.8 0-10.7 4.1-13.6 20-14.3l10-.4v8.5h-6.5c-8.4 0-12.5 1.2-13.5 3.8-1 2.5.1 5.8 2.2 6.7.8.3 8.5.9 17 1.2 13 .4 15.9.8 19 2.2 6.3 2.9 7.9 5.3 8.2 12.2.5 8.4-1 11.7-6.2 14.1-3.8 1.8-5.4 1.9-27.1 2.2l-23.1.2v-4.1zm62.4 0v-4.1l21.6-.3c19.8-.2 21.7-.4 23.3-1.8 1.2-1.2 1.7-2.6 1.7-5.2 0-6-1.5-6.5-20-7-17-.6-20.7-1.4-24.5-6-1.8-2-2-3.3-2-7.8 0-10.7 4-13.6 20-14.3l9.9-.4v8.5h-6.5c-8.4 0-12.5 1.2-13.5 3.8-1 2.5.1 5.8 2.2 6.7.9.3 8.5.9 17 1.2 13 .4 16 .8 19 2.2 6.3 2.9 8 5.3 8.3 12.2.4 8.4-1 11.7-6.3 14.1-3.8 1.8-5.4 1.9-27.1 2.2l-23 .2v-4.1zm204.7 3.7c0-1.2 33.7-48.8 35-49.6 2-1 4.4-1 6.8.1 1.6.8 34.8 47.8 34.8 49.4 0 .7-9.4.6-10.5-.1-.5-.4-2.4-3-4.3-5.8-5.7-8.4-3.9-7.8-23-7.7-9.2 0-17.2.3-17.8.7-.6.3-3 3.4-5.5 6.8l-4.3 6.2-5.6.2c-3 .2-5.6 0-5.6-.2zm48.7-23c.8-1.1-8.7-14.9-10.3-14.9-1.6 0-10 12.2-10 14.4 0 1.3 1 1.4 9.9 1.4 5.9 0 10.1-.3 10.4-.8zm157.5 22.9c-.3-.4-.6-11.4-.6-24.5 0-22 .1-24 1.5-25.2 1.8-1.6 4.8-1.8 7.4-.3 1 .5 10.4 8.3 21 17.2a211 211 0 0 0 20.7 16.2c1.3 0 1.4-1.8 1.6-17.3l.3-17.3 4.7.3 4.8.2v24.4c0 23.2 0 24.5-1.6 25.6a7 7 0 0 1-3.5 1.2c-1.2 0-9.4-6.4-23.3-18.3a288.1 288.1 0 0 0-22.4-18c-.5.1-1 7.3-1.2 18l-.4 17.9-4.2.2c-2.3.2-4.5 0-4.8-.3zM220-970.6c-.9-1-4.8-8.6-8.6-16.9a90 90 0 0 0-8-15c-.7 0-4.6 6.8-8.7 15.1s-8 15.7-8.6 16.5c-1.6 1.9-7.2 1.8-9-.2a913.3 913.3 0 0 1-22.7-47.8c0-.3 2.2-.6 5-.6h5l6.6 14c9 19 9.4 19.7 10.8 19.7.8 0 3.9-5.7 8.4-15.4 4-8.4 8-16 9.1-16.8 2.4-2 6-2 7.7 0 .7.8 4.7 8.5 8.9 17 4.8 10.1 7.9 15.6 8.6 15.4 1.2-.4 2-1.9 10.6-20l6.6-14h5c4.6 0 5 .3 4.7 1.6a699.7 699.7 0 0 1-23.6 48.1 6 6 0 0 1-7.8-.7zm50.5 1.3c-6-1.3-9.8-3.2-12-5.8L256-978v-15.4c0-18.2.3-19 7.5-22.6 4.5-2.3 4.6-2.3 23.3-2.3 18 0 18.8.1 22.8 2 3.2 1.6 4.4 2.8 5.6 5.7 1.5 3.3 1.6 5.2 1.4 18-.2 12-.5 14.7-1.7 16.6-3.7 5.6-10.3 7.3-29 7.1-7.5 0-14.4-.2-15.3-.4zM301-978c5.1-1.4 5.7-3 5.7-15.8s-.6-14.4-5.7-15.8c-4-1.1-25.5-1.1-29.5 0-5.5 1.5-5.6 2-5.6 16.2 0 14 0 14.2 5.2 15.4 4 1 26.4 1 30 0zm101 8c-5.7-1.4-7.8-2.6-9.7-5.8-1.5-2.4-1.6-4.3-1.6-23.3v-20.6l4.8.3 4.8.2.2 19.3.2 19.4 2.3 1.5c1.9 1.2 4.9 1.5 21 1.8l18.7.5v7.4l-18.3.2c-12.2 0-19.7-.2-22.5-.9zm47.8-23.8v-25l25.6.2c25.5.2 25.7.3 29.7 2.3 6.7 3.5 7.2 5.2 7 23-.3 17.4-.6 18.2-7.9 22-4 2-4.2 2-29.2 2.3l-25.2.3v-25.1zm49.7 14.5 2.3-1.8.2-12.2c.2-7.3 0-12.8-.6-13.8-1.4-2.7-6.2-3.3-23.9-3.3-15.8 0-16.9 0-17.7 1.6-1.1 2.1-1.1 28 0 30 .9 1.7 1.7 1.7 19.1 1.5 17-.3 18.4-.4 20.6-2zm60.7 9.5c-4.8-1-8-3-9.7-6-1.5-2.3-1.7-4.2-1.7-18.6 0-15.8 0-16 2.1-18.4 4.2-5 6.8-5.5 31.8-5.8l22.7-.3v8.4H585c-16 0-21 .3-23.3 1.3l-2.9 1.2v27.5l2.3 1.4c2 1.3 4.8 1.6 23.3 1.8l21 .2v8.3l-21-.1a254 254 0 0 1-24.2-.9zm62.8.1c-5-1-8.5-3.3-10.5-6.7-1.6-2.6-1.7-4.2-1.7-22.8v-20l4.8-.2 4.8-.3v17.5c0 9.6.4 18.4.8 19.5 1.6 4.3 4.2 5.1 18.4 5.4 13 .3 18-.4 21.2-2.7 1.5-1.1 1.7-2.5 2-20.2l.5-19h9.1l.3 17.5c.1 9.6 0 19-.3 21-.6 4.3-4.4 8.5-9.2 10.1-4 1.4-34.6 2-40.2 1zm57.7-.2a403 403 0 0 1-.2-24.8l.2-23.7h25.4c27.4 0 27.9.1 33.1 4.9 3.8 3.5 4.4 13.4 1 17-2 2.1-2 3.8-.5 5.1.7.6 1.7 2.8 2.2 5 2 8-1.6 13.7-10.2 16.3-5.7 1.7-50.4 1.9-51 .2zM728-978c5.6-1.5 6.2-8.2 1-10.4-3.8-1.5-36.2-1.7-37.7-.1-1 1-1.4 10-.4 10.9.9.9 33.7.6 37.1-.4zm1-20.7c2.6-1 4.1-4.1 3.4-7-1-4-4.3-4.7-22.9-4.7-9 0-17.2.3-17.9.6-1 .3-1.3 1.7-1.3 5.6 0 2.9.3 5.5.6 5.8.8.9 35.7.6 38-.3zm31.6 28.8c-5.3-1.7-8.6-4-10-7-1-2.2-1.3-5.4-1-18l.2-15.3 2.4-2.6c4-4.1 8.7-5.5 19.7-5.5h9.5v7.5l-9.3.5c-11.5.5-13 1.4-12.6 7.8l.3 4.2 22.9.4 22.9.4.2 4 .3 4h-22c-12.2 0-22.7.2-23.4.5-2.1.8-1.8 8 .4 10 1.6 1.4 3.6 1.6 23.1 2l21.4.4v7.4l-20.8.2c-15 .1-21.8-.1-24.2-1zm298.8.6c-6-1.3-9.8-3.2-12-5.8l-2.6-2.9v-15.4c0-18.2.3-19 7.5-22.6 4.6-2.3 4.6-2.3 23.3-2.3 18.1 0 18.9.1 22.8 2 3.2 1.6 4.4 2.8 5.7 5.7 1.4 3.3 1.6 5.2 1.3 18-.2 12-.5 14.7-1.7 16.6-3.7 5.6-10.3 7.3-29 7.1-7.5 0-14.4-.2-15.3-.4zm30.5-8.6c5.1-1.4 5.7-3 5.7-15.8s-.6-14.4-5.7-15.8c-4-1.1-25.4-1.1-29.4 0-5.5 1.5-5.7 2-5.7 16.2 0 14 .1 14.2 5.2 15.4 4 1 26.4 1 30 0zm33 8.2c-5-1-8-3-9.9-6-1.4-2.3-1.6-4.2-1.6-18.6 0-15.8 0-16 2-18.4 4.3-5 6.8-5.5 32-5.8l22.6-.3v8.4h-20.4c-16 0-21 .3-23.3 1.3l-3 1.2v27.5l2.3 1.4c2 1.3 4.9 1.6 23.3 1.8l21 .2v8.3l-21-.1a254 254 0 0 1-24-.8zm51-24.4v-25.5l4.7.3 4.8.2v50l-4.8.2-4.8.2V-994zm97.8 24.8c-.3-.3-.5-9.4-.5-20.3 0-17.2-.2-19.8-1.3-20.2-.8-.3-5.8-.6-11.3-.6h-9.9v-8.3h55.8v8.3h-10.7c-7.2 0-11 .4-11.6 1-.7.8-1 6.6-1 20.9v19.8h-4.5c-2.4 0-4.7-.3-5-.6zm37.8-24.8v-25.5l4.8.3 4.7.2v50l-4.7.2-4.8.2V-994zm31.2 24.8c-6-1.3-9.8-3.2-12-5.8l-2.6-2.9v-15.4c0-18.2.3-19 7.5-22.6 4.6-2.3 4.6-2.3 23.3-2.3 18 0 18.9.1 22.8 2 3.2 1.6 4.4 2.8 5.7 5.7 1.4 3.3 1.6 5.2 1.3 18-.2 12-.5 14.7-1.7 16.6-3.7 5.6-10.3 7.3-29 7.1-7.5 0-14.4-.2-15.3-.4zm30.5-8.6c5.1-1.4 5.7-3 5.7-15.8s-.6-14.4-5.7-15.8c-4-1.1-25.4-1.1-29.5 0-5.5 1.5-5.6 2-5.6 16.2 0 14 0 14.2 5.2 15.4 4 1 26.4 1 30 0z" style="fill:#060606" transform="matrix(.5 0 0 .5 -77.2 833.4)"/><path d="M577.3-1242.7c15-8.6 27.8-15.6 28.5-15.6.9 0 3.2 2.8 7 8.4a226.9 226.9 0 0 0 175.6 101.5c5.6.3 10.4 1 10.8 1.4.8 1 .8 63.2 0 64.9-1.7 3.4-45.4-1.5-69.6-7.8a274.8 274.8 0 0 1-74.4-30.6 273.7 273.7 0 0 1-63.7-49.1c-17-17.3-43.3-52.8-41.8-56.4.3-.6 12.7-8.2 27.6-16.7z" style="fill:#eeeeec" transform="matrix(.5 0 0 .5 -77.2 833.4)"/><path d="M804-1081.2c-.2-.6-.3-15.7-.2-33.6l.2-32.5 10-.5a224.7 224.7 0 0 0 147.3-66 202.3 202.3 0 0 0 28-34.1c3.7-5.5 7-10.1 7.3-10.3.7-.2 54.9 31 56.4 32.5 1 1 .2 2.6-4.2 9.5a294.7 294.7 0 0 1-235 135.6c-7.5.4-9.5.3-9.8-.6zM706-1431a4161.6 4161.6 0 0 1-93.8-55c0-1.3 187.2-109 189.3-109A6852 6852 0 0 1 991-1485.6c-1.9 1.9-188.5 109-189.8 109a4830 4830 0 0 1-95.3-54.4zm62.3 4.6c1.9-1 4-2.6 4.7-3.6l14.3-27.1a409 409 0 0 1 13.7-25.2c.3 0 6.5 11.6 13.9 25.9a182.8 182.8 0 0 0 16 28.2c5.5 5 15.9 5.4 22.2 1 3-2.1 5.1-5.8 26.5-48.3a763 763 0 0 0 22.7-47.2c-.4-1-3-1.2-14-1.2a98 98 0 0 0-14.5.6c-.5.3-7.8 14.2-16 30.9-8.5 16.8-15.5 30-16 29.5-.3-.4-6.3-11.7-13.3-25.2-7-13.5-13.6-25.8-14.7-27.4-5.6-7.5-19-7.8-25.2-.4-1.2 1.3-8 14-15.4 28-7.3 14-13.5 25.5-13.8 25.5-.2 0-7-13.1-14.9-29.3-8-16.1-15-30-15.7-30.8-1-1.2-2.8-1.4-14.2-1.4-7.1 0-13.5.3-14.1.7-1.3.9 5.2 15.1 30.1 65.9 13.4 27.2 15.1 29.8 21 32a24.7 24.7 0 0 0 16.7-1.1z" style="fill:#304a96" transform="matrix(.5 0 0 .5 -77.2 833.4)"/></svg>